<svg width="18" height="18" viewBox="0 0 18 18" fill="none" xmlns="http://www.w3.org/2000/svg">
<path d="M14.25 4.5H3.75C2.92157 4.5 2.25 5.17157 2.25 6V14.25C2.25 15.0784 2.92157 15.75 3.75 15.75H14.25C15.0784 15.75 15.75 15.0784 15.75 14.25V6C15.75 5.17157 15.0784 4.5 14.25 4.5Z" stroke="#573BB6" stroke-width="1.5"/>
<path d="M2.25 7.5C2.25 6.0855 2.25 5.379 2.6895 4.9395C3.129 4.5 3.8355 4.5 5.25 4.5H12.75C14.1645 4.5 14.871 4.5 15.3105 4.9395C15.75 5.379 15.75 6.0855 15.75 7.5H2.25Z" fill="#573BB6"/>
<path d="M5.25 2.25V4.5M12.75 2.25V4.5" stroke="#573BB6" stroke-width="1.5" stroke-linecap="round"/>
</svg>
