<svg width="24" height="24" viewBox="0 0 24 24" fill="none" xmlns="http://www.w3.org/2000/svg">
<path d="M14.5605 22.5H11.25V19.1895L15.0255 15.414C15.0094 15.2766 15.0009 15.1384 15 15C14.9995 14.2406 15.2296 13.4988 15.6598 12.873C16.0901 12.2472 16.7002 11.7667 17.4095 11.4952C18.1188 11.2237 18.8938 11.174 19.6319 11.3526C20.3701 11.5312 21.0366 11.9298 21.5433 12.4955C22.05 13.0612 22.373 13.7674 22.4696 14.5207C22.5661 15.274 22.4317 16.0389 22.084 16.7141C21.7363 17.3893 21.1918 17.9431 20.5226 18.3021C19.8533 18.661 19.0908 18.8084 18.336 18.7245L14.5605 22.5ZM12.75 21H13.9395L17.844 17.0955L18.249 17.1885C18.7311 17.3032 19.2375 17.2575 19.6913 17.0582C20.145 16.8589 20.5213 16.517 20.7631 16.0843C21.0048 15.6517 21.0987 15.152 21.0305 14.6611C20.9624 14.1702 20.7359 13.715 20.3855 13.3645C20.035 13.0141 19.5798 12.7876 19.0889 12.7195C18.5981 12.6513 18.0983 12.7452 17.6657 12.987C17.2331 13.2287 16.8911 13.605 16.6918 14.0587C16.4925 14.5125 16.4468 15.0189 16.5615 15.501L16.6545 15.906L12.75 19.8105V21Z" fill="#060606"/>
<path d="M18.75 15.75C19.1642 15.75 19.5 15.4142 19.5 15C19.5 14.5858 19.1642 14.25 18.75 14.25C18.3358 14.25 18 14.5858 18 15C18 15.4142 18.3358 15.75 18.75 15.75Z" fill="#060606"/>
<path d="M6 4.5H15V6H6V4.5ZM6 7.5H15V9H6V7.5ZM6 10.5H10.5V12H6V10.5ZM6 18H9V19.5H6V18Z" fill="#060606"/>
<path d="M9 22.5H4.5C4.10218 22.5 3.72064 22.342 3.43934 22.0607C3.15804 21.7794 3 21.3978 3 21V3C3 2.60218 3.15804 2.22064 3.43934 1.93934C3.72064 1.65804 4.10218 1.5 4.5 1.5H16.5C16.8978 1.5 17.2794 1.65804 17.5607 1.93934C17.842 2.22064 18 2.60218 18 3V9.75H16.5V3H4.5V21H9V22.5Z" fill="#060606"/>
</svg>
