<svg width="24" height="24" viewBox="0 0 24 24" fill="none" xmlns="http://www.w3.org/2000/svg">
<path d="M12 21C16.9706 21 21 16.9706 21 12C21 7.02944 16.9706 3 12 3C7.02944 3 3 7.02944 3 12C3 16.9706 7.02944 21 12 21Z" stroke="#15B076" stroke-width="2" stroke-linecap="round" stroke-linejoin="round"/>
<path d="M15.623 8.82807C15.784 8.64656 16.0146 8.53076 16.2658 8.5053C16.5171 8.47984 16.769 8.54675 16.9681 8.69177C17.0658 8.76231 17.1474 8.8504 17.208 8.95082C17.2686 9.05124 17.307 9.16196 17.3209 9.27644C17.3348 9.39091 17.3239 9.50682 17.2889 9.61731C17.2539 9.72781 17.1955 9.83064 17.1171 9.91973L12.024 15.7503C11.9388 15.8467 11.833 15.9255 11.7134 15.9818C11.5938 16.0381 11.463 16.0706 11.3292 16.0774C11.1954 16.0842 11.0615 16.065 10.9361 16.0211C10.8106 15.9772 10.6963 15.9095 10.6004 15.8223L6.78065 12.3264L6.71428 12.2608C6.40815 11.9175 6.42982 11.4115 6.78065 11.0909C7.13147 10.7703 7.68548 10.7502 8.06068 11.0303L8.13247 11.0909L11.2073 13.8926L15.6366 8.83186L15.623 8.82807Z" fill="#15B076"/>
</svg>
