<svg width="12" height="16" viewBox="0 0 12 16" fill="none" xmlns="http://www.w3.org/2000/svg">
<path fill-rule="evenodd" clip-rule="evenodd" d="M5.4465 15.6005C5.4465 15.6005 0 11.0135 0 6.5C0 4.9087 0.632141 3.38258 1.75736 2.25736C2.88258 1.13214 4.4087 0.5 6 0.5C7.5913 0.5 9.11742 1.13214 10.2426 2.25736C11.3679 3.38258 12 4.9087 12 6.5C12 11.0135 6.5535 15.6005 6.5535 15.6005C6.2505 15.8795 5.75175 15.8765 5.4465 15.6005ZM6 9.125C6.34472 9.125 6.68606 9.0571 7.00454 8.92518C7.32302 8.79327 7.6124 8.59991 7.85616 8.35616C8.09991 8.1124 8.29327 7.82302 8.42518 7.50454C8.5571 7.18606 8.625 6.84472 8.625 6.5C8.625 6.15528 8.5571 5.81394 8.42518 5.49546C8.29327 5.17698 8.09991 4.8876 7.85616 4.64384C7.6124 4.40009 7.32302 4.20673 7.00454 4.07482C6.68606 3.9429 6.34472 3.875 6 3.875C5.30381 3.875 4.63613 4.15156 4.14385 4.64384C3.65156 5.13613 3.375 5.80381 3.375 6.5C3.375 7.19619 3.65156 7.86387 4.14385 8.35616C4.63613 8.84844 5.30381 9.125 6 9.125Z" fill="#FF4000"/>
</svg>
