<svg width="24" height="24" viewBox="0 0 24 24" fill="none" xmlns="http://www.w3.org/2000/svg">
<path d="M22.164 13.7168L21.2369 12.9771C20.6018 12.4704 20.603 11.5286 21.2369 11.0229L22.164 10.2832C22.8237 9.75673 22.9925 8.85401 22.5652 8.13661L20.7346 5.06342C20.3072 4.34606 19.4161 4.0364 18.616 4.32691L17.4915 4.73524C16.7213 5.01486 15.8803 4.54325 15.7454 3.75814L15.548 2.61005C15.4075 1.79304 14.6852 1.20001 13.8306 1.20001H10.1694C9.31481 1.20001 8.59254 1.79304 8.45208 2.61009L8.25464 3.75814C8.11941 4.54464 7.27735 5.0144 6.50855 4.73528L5.38405 4.32691C4.58391 4.0364 3.69284 4.3461 3.26546 5.06342L1.43488 8.13657C1.00758 8.85388 1.17629 9.75665 1.8361 10.2831L2.76317 11.0229C3.3983 11.5296 3.39704 12.4713 2.76317 12.9771L1.83606 13.7168C1.17629 14.2433 1.00754 15.1461 1.43483 15.8634L3.26546 18.9366C3.6928 19.6539 4.58369 19.9636 5.38405 19.6731L6.5085 19.2647C7.27887 18.985 8.11962 19.4569 8.2546 20.2418L8.45203 21.3899C8.59254 22.207 9.31481 22.8 10.1694 22.8H13.8306C14.6852 22.8 15.4075 22.207 15.5479 21.3899L15.7453 20.2419C15.8805 19.4556 16.7225 18.9855 17.4915 19.2648L18.616 19.6731C19.4163 19.9637 20.3072 19.654 20.7346 18.9366L22.5653 15.8634C22.9925 15.1461 22.8237 14.2433 22.164 13.7168ZM19.2268 18.0929L18.1023 17.6845C16.3047 17.0318 14.3429 18.133 14.028 19.9645L13.8306 21.1125H10.1694L9.97201 19.9645C9.65649 18.1294 7.69185 17.0331 5.89774 17.6845L4.77325 18.0929L2.94267 15.0197L3.86973 14.28C5.35175 13.0974 5.34866 10.9001 3.86973 9.72007L2.94267 8.98036L4.77329 5.90717L5.89774 6.3155C7.69537 6.96814 9.6571 5.86705 9.97201 4.03556L10.1694 2.88751H13.8306L14.028 4.03556C14.3436 5.8708 16.3083 6.96679 18.1023 6.3155L19.2268 5.90717L21.0578 8.97994C21.0578 8.97994 21.0576 8.98006 21.0573 8.98032L20.1303 9.72003C18.6483 10.9025 18.6513 13.0998 20.1302 14.2799L21.0573 15.0196L19.2268 18.0929ZM12 7.8375C9.63198 7.8375 7.70543 9.7048 7.70543 12C7.70543 14.2952 9.63198 16.1625 12 16.1625C14.3681 16.1625 16.2946 14.2952 16.2946 12C16.2946 9.7048 14.3681 7.8375 12 7.8375ZM12 14.475C10.592 14.475 9.44647 13.3647 9.44647 12C9.44647 10.6353 10.592 9.525 12 9.525C13.408 9.525 14.5536 10.6353 14.5536 12C14.5536 13.3647 13.408 14.475 12 14.475Z" fill="#060606"/>
</svg>
