<svg width="24" height="24" viewBox="0 0 24 24" fill="none" xmlns="http://www.w3.org/2000/svg">
<g clip-path="url(#clip0_1218_60)">
<path d="M11.99 22.1999C9.86002 22.1999 7.78002 21.4699 6.13002 20.1399C4.48002 18.8099 3.33002 16.9499 2.89002 14.8899C2.45002 12.8299 2.75002 10.6699 3.73002 8.8099C4.71002 6.9499 6.32002 5.4599 8.27002 4.6099C8.39002 4.5599 8.52002 4.5299 8.66002 4.5199C8.81002 4.5199 8.93002 4.5399 9.05002 4.5899C9.18002 4.6399 9.29002 4.7099 9.39002 4.7999C9.49002 4.8899 9.57002 4.9999 9.62002 5.1299C9.67002 5.2499 9.70002 5.3899 9.71002 5.5199C9.71002 5.6499 9.69002 5.7899 9.64002 5.9099C9.59002 6.0399 9.52002 6.1499 9.42002 6.2399C9.33002 6.3399 9.21002 6.4099 9.09002 6.4699C7.57002 7.1199 6.31002 8.2899 5.55002 9.7399C4.79002 11.1899 4.56002 12.8799 4.90002 14.4799C5.24002 16.0799 6.13002 17.5299 7.42002 18.5599C8.71002 19.5899 10.33 20.1599 11.99 20.1599C13.65 20.1599 15.27 19.5899 16.56 18.5599C17.85 17.5299 18.74 16.0799 19.08 14.4799C19.42 12.8799 19.19 11.1999 18.43 9.7399C17.67 8.2899 16.41 7.1199 14.89 6.4699C14.77 6.4199 14.65 6.3399 14.56 6.2399C14.47 6.1399 14.39 6.0299 14.34 5.9099C14.29 5.7899 14.27 5.6499 14.27 5.5199C14.27 5.3799 14.3 5.2499 14.36 5.1299C14.42 5.0099 14.49 4.8999 14.59 4.7999C14.69 4.7099 14.8 4.6399 14.93 4.5899C15.05 4.5399 15.17 4.5199 15.3 4.5199C15.46 4.5199 15.59 4.5499 15.72 4.6099C17.67 5.4499 19.28 6.9399 20.26 8.8099C21.24 10.6799 21.53 12.8399 21.1 14.8899C20.66 16.9499 19.52 18.8099 17.86 20.1399C16.21 21.4599 14.13 22.1999 12 22.1999H11.99Z" fill="#FF4000"/>
<path d="M11.9889 10.38C11.6989 10.38 11.4189 10.28 11.2089 10.09C10.9989 9.89999 10.8789 9.62999 10.8789 9.35999V2.81999C10.8789 2.54999 10.9989 2.27999 11.2089 2.08999C11.4189 1.89999 11.6989 1.79999 11.9889 1.79999C12.2789 1.79999 12.5589 1.89999 12.7689 2.08999C12.9789 2.27999 13.0989 2.54999 13.0989 2.81999V9.36999C13.0989 9.63999 12.9789 9.90999 12.7689 10.1C12.5589 10.29 12.2889 10.39 11.9889 10.39V10.38Z" fill="#FF4000"/>
</g>
<defs>
<clipPath id="clip0_1218_60">
<rect width="18.58" height="20.4" fill="white" transform="translate(2.69922 1.79999)"/>
</clipPath>
</defs>
</svg>
