<svg width="24" height="24" viewBox="0 0 24 24" fill="none" xmlns="http://www.w3.org/2000/svg">
<path d="M2.99999 17H15C15.2549 17.0003 15.5 17.0979 15.6854 17.2728C15.8707 17.4478 15.9822 17.687 15.9972 17.9414C16.0121 18.1958 15.9293 18.4464 15.7657 18.6418C15.6021 18.8373 15.3701 18.9629 15.117 18.993L15 19H2.99999C2.74511 18.9997 2.49996 18.9021 2.31462 18.7272C2.12929 18.5522 2.01776 18.313 2.00282 18.0586C1.98788 17.8042 2.07067 17.5536 2.23426 17.3582C2.39785 17.1627 2.62989 17.0371 2.88299 17.007L2.99999 17ZM2.99999 11H21C21.2549 11.0003 21.5 11.0979 21.6854 11.2728C21.8707 11.4478 21.9822 11.687 21.9972 11.9414C22.0121 12.1958 21.9293 12.4464 21.7657 12.6418C21.6021 12.8373 21.3701 12.9629 21.117 12.993L21 13H2.99999C2.74511 12.9997 2.49996 12.9021 2.31462 12.7272C2.12929 12.5522 2.01776 12.313 2.00282 12.0586C1.98788 11.8042 2.07067 11.5536 2.23426 11.3582C2.39785 11.1627 2.62989 11.0371 2.88299 11.007L2.99999 11ZM2.99999 5H18C18.2549 5.00028 18.5 5.09788 18.6854 5.27285C18.8707 5.44782 18.9822 5.68695 18.9972 5.94139C19.0121 6.19584 18.9293 6.44638 18.7657 6.64183C18.6021 6.83729 18.3701 6.9629 18.117 6.993L18 7H2.99999C2.74511 6.99972 2.49996 6.90212 2.31462 6.72715C2.12929 6.55218 2.01776 6.31305 2.00282 6.05861C1.98788 5.80416 2.07067 5.55362 2.23426 5.35817C2.39785 5.16271 2.62989 5.0371 2.88299 5.007L2.99999 5Z" fill="#573BB6"/>
</svg>
