<svg width="24" height="24" viewBox="0 0 24 24" fill="none" xmlns="http://www.w3.org/2000/svg">
<path d="M10.8847 11.0573C8.30472 11.0573 6.21329 8.96588 6.21329 6.38588C6.21329 3.80588 8.30472 1.71445 10.8847 1.71445C13.4647 1.71445 15.5561 3.80588 15.5561 6.38588C15.5561 8.96588 13.4561 11.0573 10.8847 11.0573ZM10.8847 3.5573C9.32472 3.5573 8.05614 4.82588 8.05614 6.38588C8.05614 7.94588 9.32472 9.21445 10.8847 9.21445C12.4447 9.21445 13.7133 7.94588 13.7133 6.38588C13.7133 4.82588 12.4447 3.5573 10.8847 3.5573Z" fill="#060606"/>
<path d="M2.639 21.5573C2.399 21.5573 2.159 21.463 1.98757 21.2916C1.81614 21.1202 1.71329 20.8887 1.71329 20.6402V19.1402C1.71329 15.3259 4.81614 12.2144 8.639 12.2144H11.6476C11.7761 12.2144 11.8961 12.2402 11.999 12.283C12.1104 12.3259 12.2133 12.3944 12.299 12.4802C12.3847 12.5659 12.4533 12.6687 12.5047 12.7802C12.5561 12.8916 12.5733 13.0116 12.5733 13.1402C12.5733 13.2687 12.5476 13.3802 12.5047 13.4916C12.4533 13.603 12.3847 13.7059 12.299 13.7916C12.2133 13.8773 12.1104 13.9459 11.999 13.9887C11.8876 14.0316 11.7761 14.0573 11.6561 14.0573H8.63043C5.78472 14.0573 3.55614 16.2859 3.55614 19.1316V19.7059H10.7733C10.9019 19.7059 11.0219 19.7316 11.1247 19.7744C11.2361 19.8173 11.339 19.8859 11.4247 19.9716C11.5104 20.0573 11.579 20.1602 11.6304 20.2716C11.6819 20.383 11.699 20.503 11.699 20.6316C11.699 20.7602 11.6733 20.8716 11.6304 20.983C11.579 21.0944 11.5104 21.1973 11.4247 21.283C11.339 21.3687 11.2361 21.4373 11.1247 21.4802C11.0133 21.523 10.9019 21.5487 10.7819 21.5487H2.639V21.5573Z" fill="#060606"/>
<path d="M17.6219 12.3859C17.2019 12.3859 16.8762 12.7288 16.8762 13.1488V13.9631C16.3962 14.0574 15.9505 14.2545 15.5648 14.5116L14.9905 13.9374C14.8105 13.7574 14.6134 13.6888 14.4248 13.6973C13.8591 13.7316 13.3876 14.4688 13.9276 15.0002L14.5105 15.5831C14.2534 15.9774 14.0562 16.4231 13.9619 16.8945H13.1476C12.1362 16.8773 12.1362 18.4116 13.1476 18.3945H13.9619C14.0562 18.8659 14.2534 19.3116 14.5105 19.6974L13.9276 20.2802C13.1991 20.9831 14.2791 22.0716 14.9905 21.3431L15.5734 20.7602C15.9676 21.0174 16.4134 21.2145 16.8848 21.3088V22.1231C16.8676 23.1345 18.4019 23.1345 18.3848 22.1231V21.3088C18.8648 21.2145 19.3019 21.0174 19.6962 20.7602L20.2791 21.3431C20.5705 21.6431 21.0591 21.6431 21.3505 21.3431C21.6419 21.0431 21.6334 20.5716 21.3334 20.2802L20.7505 19.6974C21.0076 19.3031 21.2048 18.8659 21.2991 18.3859H22.1134C22.5334 18.3859 22.8762 18.0431 22.8762 17.6316C22.8762 17.2116 22.5334 16.8859 22.1134 16.8859H21.2991C21.2048 16.4059 21.0076 15.9602 20.7505 15.5659L21.3248 14.9831C21.6248 14.6916 21.6248 14.2031 21.3248 13.9116C21.1791 13.7659 20.9819 13.6973 20.7934 13.6973C20.6048 13.6973 20.4162 13.7745 20.2705 13.9202L19.6876 14.5031C19.2934 14.2459 18.8476 14.0488 18.3762 13.9545V13.1402C18.3762 12.7202 18.0334 12.3773 17.6219 12.3773V12.3859ZM17.6391 15.3859C18.8905 15.3859 19.8848 16.3802 19.8848 17.6316C19.8848 18.8831 18.8905 19.8774 17.6391 19.8774C16.3876 19.8774 15.3934 18.8831 15.3934 17.6316C15.3934 16.3802 16.3876 15.3859 17.6391 15.3859Z" fill="#060606"/>
</svg>
