<svg width="44" height="44" viewBox="0 0 44 44" fill="none" xmlns="http://www.w3.org/2000/svg">
<g filter="url(#filter0_d_418_119)">
<rect x="10.5714" y="6.57143" width="22.8571" height="22.8571" rx="4.19052" fill="white" stroke="#EDB200" stroke-width="1.14287"/>
<path d="M26.6731 28.3789C25.9191 28.074 25.5244 27.8512 24.963 27.8132C24.9632 27.8112 24.9634 27.8094 24.9634 27.8073V25.0809C25.1616 25.0386 25.4707 24.9455 25.718 24.8075C26.8817 24.1588 27.3964 22.7555 26.9534 21.4991L26.5241 20.2816C26.4773 20.1492 26.3522 20.0605 26.2117 20.0605C25.8695 20.0605 23.6234 20.0605 23.3643 20.0605C23.2238 20.0605 23.0985 20.1492 23.0519 20.2816L22.6226 21.4991C22.1796 22.7555 22.6943 24.1588 23.858 24.8075C24.1035 24.9444 24.4134 25.0381 24.6125 25.0808V27.8073C24.6125 27.8092 24.6128 27.8112 24.613 27.8132C24.0521 27.8514 23.6582 28.0735 22.9027 28.3789C22.8325 28.4075 22.8484 28.5393 22.9224 28.5393H26.6539C26.7274 28.5393 26.7435 28.4075 26.6731 28.3789Z" fill="#EDB200"/>
<path d="M20.4346 17.1794C20.0564 16.858 19.8384 16.3867 19.8384 15.8903V13.0294H19.9118C19.9505 13.0294 19.982 12.9979 19.982 12.9592V12.5001C19.982 12.4614 19.9505 12.4299 19.9118 12.4299H19.8384V12.1978C19.8384 12.0886 19.75 12 19.6407 12H18.39C18.2809 12 18.1922 12.0885 18.1922 12.1978V12.4299H18.1189C18.0801 12.4299 18.0486 12.4614 18.0486 12.5001V12.9592C18.0486 12.9979 18.0801 13.0294 18.1189 13.0294H18.1922V15.8903C18.1922 16.3867 17.9743 16.8579 17.5961 17.1794C17.218 17.5008 17 17.9722 17 18.4685V28.1041C17 28.3448 17.195 28.5397 17.4356 28.5397H20.5951C20.8357 28.5397 21.0307 28.3448 21.0307 28.1041V18.4683C21.0307 17.972 20.8127 17.5008 20.4346 17.1794Z" fill="#EDB200"/>
</g>
<defs>
<filter id="filter0_d_418_119" x="0" y="0" width="44" height="44" filterUnits="userSpaceOnUse" color-interpolation-filters="sRGB">
<feFlood flood-opacity="0" result="BackgroundImageFix"/>
<feColorMatrix in="SourceAlpha" type="matrix" values="0 0 0 0 0 0 0 0 0 0 0 0 0 0 0 0 0 0 127 0" result="hardAlpha"/>
<feOffset dy="4"/>
<feGaussianBlur stdDeviation="5"/>
<feComposite in2="hardAlpha" operator="out"/>
<feColorMatrix type="matrix" values="0 0 0 0 0 0 0 0 0 0 0 0 0 0 0 0 0 0 0.1 0"/>
<feBlend mode="normal" in2="BackgroundImageFix" result="effect1_dropShadow_418_119"/>
<feBlend mode="normal" in="SourceGraphic" in2="effect1_dropShadow_418_119" result="shape"/>
</filter>
</defs>
</svg>
