<svg width="44" height="44" viewBox="0 0 44 44" fill="none" xmlns="http://www.w3.org/2000/svg">
<g filter="url(#filter0_d_421_186)">
<rect x="10.5714" y="6.57143" width="22.8571" height="22.8571" rx="4.19052" fill="white" stroke="#573BB6" stroke-width="1.14287"/>
<path d="M27.9756 13.6628C27.9315 13.5308 27.8356 13.4212 27.7087 13.3578C27.5818 13.2944 27.4343 13.2825 27.2983 13.3245L24.429 14.2246C24.3529 14.2481 24.2831 14.2878 24.2247 14.3407C24.1663 14.3936 24.1207 14.4584 24.0911 14.5306L23.4679 16.0899H17.4184C17.3425 16.0899 17.2675 16.1055 17.1983 16.1356C17.129 16.1658 17.0671 16.2097 17.0165 16.2647C16.9653 16.3197 16.9271 16.3851 16.9049 16.4562C16.8826 16.5272 16.8767 16.6022 16.8877 16.6757L17.2602 19.6061L17.3968 20.6246L18.3224 27.8393C18.3363 27.9664 18.3984 28.0839 18.4964 28.169C18.5945 28.2541 18.7216 28.3007 18.853 28.2998H23.8759C24.0074 28.3007 24.1345 28.2541 24.2325 28.169C24.3306 28.0839 24.3927 27.9664 24.4066 27.8393L25.3322 20.6246L25.4687 19.6061L25.8421 16.6742C25.8529 16.6006 25.8468 16.5257 25.8244 16.4546C25.802 16.3836 25.7638 16.3182 25.7125 16.2632C25.6619 16.2082 25.5999 16.1643 25.5307 16.1341C25.4615 16.104 25.3865 16.0884 25.3106 16.0884H24.6226L25.0021 15.1396L27.6246 14.3191C27.7603 14.2768 27.8734 14.1842 27.9391 14.0612C28.0049 13.9383 28.018 13.7951 27.9756 13.6628ZM18.4728 19.9271C18.4446 19.9312 18.4168 19.9372 18.3895 19.9451L18.344 19.5783L18.0285 17.1362H23.0491L21.9391 19.9114V19.9264L18.4728 19.9271ZM24.7013 17.1362L24.385 19.5783L24.3403 19.9451C24.3127 19.9373 24.2846 19.9313 24.2562 19.9271H23.0884L24.2038 17.1362H24.7013Z" fill="#573BB6"/>
</g>
<defs>
<filter id="filter0_d_421_186" x="0" y="0" width="44" height="44" filterUnits="userSpaceOnUse" color-interpolation-filters="sRGB">
<feFlood flood-opacity="0" result="BackgroundImageFix"/>
<feColorMatrix in="SourceAlpha" type="matrix" values="0 0 0 0 0 0 0 0 0 0 0 0 0 0 0 0 0 0 127 0" result="hardAlpha"/>
<feOffset dy="4"/>
<feGaussianBlur stdDeviation="5"/>
<feComposite in2="hardAlpha" operator="out"/>
<feColorMatrix type="matrix" values="0 0 0 0 0 0 0 0 0 0 0 0 0 0 0 0 0 0 0.1 0"/>
<feBlend mode="normal" in2="BackgroundImageFix" result="effect1_dropShadow_421_186"/>
<feBlend mode="normal" in="SourceGraphic" in2="effect1_dropShadow_421_186" result="shape"/>
</filter>
</defs>
</svg>
