<svg width="48" height="48" viewBox="0 0 48 48" fill="none" xmlns="http://www.w3.org/2000/svg">
<rect width="48" height="48" rx="14" fill="#FF4000"/>
<path d="M23.9989 27.5C25.9319 27.5 27.4989 25.933 27.4989 24C27.4989 22.067 25.9319 20.5 23.9989 20.5C22.0659 20.5 20.4989 22.067 20.4989 24C20.4989 25.933 22.0659 27.5 23.9989 27.5Z" fill="white" stroke="white" stroke-width="2"/>
<path d="M33.5526 22.7563C34.0053 23.307 34.2316 23.5812 34.2316 24C34.2316 24.4188 34.0053 24.693 33.5526 25.2437C31.896 27.255 28.242 31 24 31C19.758 31 16.104 27.255 14.4473 25.2437C13.9946 24.693 13.7683 24.4188 13.7683 24C13.7683 23.5812 13.9946 23.307 14.4473 22.7563C16.104 20.745 19.758 17 24 17C28.242 17 31.896 20.745 33.5526 22.7563Z" stroke="white" stroke-width="2"/>
</svg>
