<svg width="24" height="24" viewBox="0 0 24 24" fill="none" xmlns="http://www.w3.org/2000/svg">
<path d="M7.05101 18.3638L18.3647 7.05014C18.7183 6.69658 18.7183 5.98948 18.3647 5.63592C18.0112 5.28237 17.3041 5.28237 16.9505 5.63592L5.63679 16.9496C5.44926 17.1372 5.3439 17.3915 5.3439 17.6567C5.3439 17.922 5.44926 18.1763 5.63679 18.3638C5.99035 18.7174 6.69745 18.7174 7.05101 18.3638Z" fill="#060606"/>
<path d="M18.3634 16.95L7.04965 5.63626C6.69609 5.28271 5.98899 5.28271 5.63543 5.63626C5.28188 5.98981 5.28188 6.69692 5.63543 7.05047L16.9491 18.3642C17.1367 18.5517 17.391 18.6571 17.6562 18.6571C17.9215 18.6571 18.1758 18.5517 18.3634 18.3642C18.7169 18.0106 18.7169 17.3035 18.3634 16.95Z" fill="#060606"/>
</svg>
