<svg width="24" height="23" viewBox="0 0 24 23" fill="none" xmlns="http://www.w3.org/2000/svg">
<path d="M13.9695 20.7713C13.7811 20.8221 13.5889 20.8674 13.3982 20.9066C12.8991 21.0083 12.5771 21.4953 12.679 21.9944C12.6847 22.0229 12.6918 22.05 12.7 22.0772C12.8361 22.5283 13.2963 22.8098 13.767 22.7137C13.9947 22.6671 14.2242 22.6129 14.4491 22.5523C14.941 22.42 15.2324 21.9139 15.1 21.4219C14.9675 20.9293 14.4614 20.6388 13.9695 20.7713Z" fill="#85878C"/>
<path d="M7.54149 20.2574C7.36337 20.1782 7.18567 20.0924 7.01328 20.0022C6.56151 19.7667 6.00459 19.9417 5.76901 20.3934C5.65273 20.6156 5.6364 20.8635 5.70359 21.086C5.77297 21.3154 5.9308 21.518 6.15978 21.6375C6.36556 21.7447 6.57706 21.8472 6.78924 21.9418C7.25422 22.1494 7.79969 21.9409 8.00745 21.476C8.21521 21.0107 8.00651 20.4656 7.54149 20.2574Z" fill="#85878C"/>
<path d="M10.7101 21.0682C10.5161 21.0526 10.3193 21.0306 10.1262 21.0035C9.6218 20.9316 9.15511 21.2826 9.08345 21.7869C9.064 21.924 9.07591 22.058 9.11335 22.1823C9.21388 22.5154 9.4999 22.7773 9.86721 22.8297C10.097 22.8621 10.3309 22.8882 10.5621 22.9066C11.07 22.9477 11.5147 22.5692 11.5555 22.0617C11.5964 21.5538 11.2181 21.1091 10.7101 21.0682Z" fill="#85878C"/>
<path d="M16.94 19.396C16.7798 19.5063 16.6136 19.6133 16.4463 19.7143C16.0776 19.9364 15.9203 20.3757 16.0389 20.7697C16.0608 20.8419 16.092 20.9126 16.1326 20.9804C16.3954 21.4166 16.9623 21.5567 17.3986 21.2941C17.5975 21.1741 17.7951 21.0465 17.9856 20.9155C18.4051 20.6267 18.5114 20.0524 18.2226 19.633C17.9339 19.2132 17.3594 19.1073 16.94 19.396Z" fill="#85878C"/>
<path d="M20.5646 16.9018C20.1515 16.6039 19.5751 16.6974 19.2772 17.1102C19.1634 17.2682 19.0429 17.4249 18.9196 17.5752C18.7173 17.8222 18.6648 18.1425 18.7503 18.4268C18.8016 18.596 18.9017 18.7528 19.0486 18.8732C19.4427 19.1959 20.0237 19.138 20.3464 18.7439C20.4936 18.5645 20.6374 18.3776 20.773 18.1893C21.071 17.7762 20.9777 17.1999 20.5646 16.9018Z" fill="#85878C"/>
<path d="M21.8558 13.5421C21.367 13.3993 20.8549 13.6801 20.7123 14.1691C20.6575 14.3563 20.5964 14.5444 20.5311 14.7279C20.4617 14.9209 20.4607 15.1223 20.5159 15.3047C20.5974 15.5753 20.8017 15.8047 21.0876 15.9071C21.5672 16.0791 22.095 15.83 22.2673 15.3507C22.3455 15.132 22.4181 14.9082 22.4829 14.6854C22.6254 14.1967 22.3447 13.6844 21.8558 13.5421Z" fill="#85878C"/>
<path d="M23.5868 7.53332L22.3747 7.90993C21.4549 5.09107 19.5181 2.77468 16.8967 1.36785C16.6329 1.22614 16.3652 1.09592 16.0942 0.976255C16.0923 0.975319 16.0907 0.974539 16.0889 0.973343C16.0776 0.968559 16.0656 0.964086 16.0546 0.959198C13.6646 -0.086564 11.0198 -0.284806 8.48456 0.40176C8.46464 0.40566 8.44472 0.409404 8.42507 0.414969C8.3404 0.438059 8.25496 0.463073 8.17066 0.488244C8.03227 0.530055 7.89306 0.575091 7.75649 0.621948C7.74032 0.627512 7.72508 0.634429 7.70938 0.640669C5.44624 1.42464 3.519 2.87006 2.1441 4.8013C2.13921 4.80796 2.1337 4.81368 2.12907 4.82028C1.99469 5.00901 1.86452 5.2047 1.74158 5.40211C1.73389 5.41475 1.72749 5.42791 1.72016 5.44096C1.59753 5.63983 1.47969 5.84327 1.36808 6.05077C0.228558 8.17443 -0.206149 10.5472 0.0904337 12.8911C0.0911098 12.8965 0.0917338 12.9014 0.0922019 12.9068C0.0926699 12.9105 0.093502 12.9144 0.0943861 12.9183C0.174993 13.5444 0.307397 14.1685 0.493314 14.785C0.981534 16.4036 1.79619 17.8591 2.9145 19.1112C3.25372 19.4909 3.8368 19.5237 4.21674 19.1844C4.59648 18.8451 4.62961 18.2619 4.29012 17.8822C3.73185 17.2575 3.26464 16.5713 2.89068 15.832C2.88667 15.8229 2.88314 15.8136 2.87877 15.8049C2.79083 15.6304 2.70726 15.4517 2.62987 15.2727C2.62946 15.2713 2.62899 15.2705 2.62837 15.2693C2.48754 14.9399 2.36475 14.6009 2.2595 14.2525C1.05075 10.2447 2.59227 6.05092 5.79124 3.70614C5.83856 3.67171 5.88583 3.63697 5.93363 3.60358C6.75488 3.02436 7.68119 2.56505 8.69497 2.25937C9.7152 1.95181 10.7469 1.82263 11.7574 1.8529C11.7737 1.85363 11.7896 1.85409 11.8057 1.85456C11.8674 1.85643 11.9289 1.85971 11.9902 1.86314C12.0151 1.86444 12.0398 1.8658 12.0645 1.86736C15.2153 2.06445 18.1208 3.81441 19.7518 6.56364C19.7527 6.5652 19.7533 6.56697 19.7544 6.56853C19.7786 6.60935 19.8022 6.65012 19.8259 6.69141C19.8288 6.69604 19.8318 6.70015 19.8345 6.70488C20.1466 7.25213 20.4092 7.83775 20.6134 8.45749L19.4014 8.83432C19.0648 8.9389 19.0316 9.18108 19.3271 9.37257L21.9647 11.081C22.2604 11.2727 22.6131 11.1629 22.7479 10.8378L23.9529 7.93495C24.0876 7.60961 23.9232 7.42879 23.5868 7.53332Z" fill="#85878C"/>
<path d="M8.07418 11.4805C7.18532 12.139 6.57905 12.7102 6.25589 13.1941C5.93305 13.6779 5.73938 14.1944 5.67578 14.7436H11.2369V13.2327H8.34248C8.51243 13.0656 8.66028 12.9309 8.78623 12.8279C8.91224 12.7243 9.16155 12.5441 9.53484 12.2861C10.1627 11.8432 10.5959 11.4366 10.8342 11.0663C11.0722 10.6964 11.1913 10.308 11.1913 9.90142C11.1913 9.51924 11.0875 9.17403 10.8797 8.86591C10.6717 8.55809 10.3864 8.32969 10.0239 8.181C9.66147 8.03253 9.15396 7.95801 8.50156 7.95801C7.87677 7.95801 7.38767 8.03628 7.03404 8.19276C6.68082 8.34898 6.40681 8.57338 6.21278 8.86591C6.01854 9.159 5.8852 9.56625 5.81224 10.0879L7.66902 10.238C7.72055 9.86206 7.82155 9.59948 7.97158 9.45091C8.12193 9.30222 8.31502 9.22781 8.552 9.22781C8.77942 9.22781 8.96835 9.29999 9.11844 9.44415C9.26852 9.58799 9.34372 9.76184 9.34372 9.96523C9.34372 10.1534 9.2679 10.352 9.1161 10.5615C8.9644 10.7708 8.61701 11.0773 8.07418 11.4805Z" fill="#85878C"/>
<path d="M16.8321 14.7436V13.4966H17.6693V12.0583H16.8321V7.95801H15.2165L11.8398 11.9721V13.4966H15.2165V14.7436H16.8321ZM13.4325 12.0583L15.2165 9.95904V12.0583H13.4325Z" fill="#85878C"/>
</svg>
