<svg width="24" height="24" viewBox="0 0 24 24" fill="none" xmlns="http://www.w3.org/2000/svg">
<path d="M22 22.982V11.482C22 10.104 20.878 8.982 19.5 8.982H12.5V6.94C13.917 6.701 15 5.466 15 3.982C15 2.404 12.584 0.459 12.309 0.243L12 0L11.691 0.243C11.416 0.459 9 2.404 9 3.982C9 5.466 10.083 6.701 11.5 6.94V8.982H4.5C3.122 8.982 2 10.104 2 11.482V22.982H0V23.982H24V22.982H22ZM10 3.982C10 3.246 11.124 2.036 12 1.284C12.876 2.036 14 3.246 14 3.982C14 5.085 13.103 5.982 12 5.982C10.897 5.982 10 5.085 10 3.982ZM4.5 9.982H19.5C20.327 9.982 21 10.655 21 11.482V15.83C20.754 15.931 20.502 15.982 20.25 15.982C18.973 15.982 18 14.649 18 13.982H17C17 14.667 16.05 15.982 14.75 15.982C13.473 15.982 12.5 14.649 12.5 13.982H11.5C11.5 14.667 10.55 15.982 9.25 15.982C7.973 15.982 7 14.649 7 13.982H6C6 14.667 5.05 15.982 3.75 15.982C3.498 15.982 3.247 15.93 3 15.828V11.482C3 10.655 3.673 9.982 4.5 9.982ZM3 16.882C3.246 16.948 3.497 16.982 3.75 16.982C4.889 16.982 5.922 16.283 6.505 15.423C7.066 16.26 8.053 16.982 9.25 16.982C10.389 16.982 11.422 16.283 12.005 15.423C12.566 16.26 13.553 16.982 14.75 16.982C15.889 16.982 16.922 16.283 17.505 15.423C18.066 16.26 19.053 16.982 20.25 16.982C20.503 16.982 20.754 16.949 21 16.883V22.982H3V16.882Z" fill="#FF4000"/>
</svg>
