<svg width="25" height="24" viewBox="0 0 25 24" fill="none" xmlns="http://www.w3.org/2000/svg">
<path d="M6.001 12C9.31 12 12.001 9.309 12.001 6C12.001 2.691 9.31 0 6.001 0C2.692 0 0.001 2.691 0.001 6C0.001 9.309 2.692 12 6.001 12ZM8.001 10.576C7.387 10.845 6.713 11 6.001 11C5.289 11 4.615 10.846 4.001 10.576V9C4.001 8.448 4.45 8 5.001 8H7.001C7.552 8 8.001 8.448 8.001 9V10.576ZM6.001 1C8.758 1 11.001 3.243 11.001 6C11.001 7.627 10.208 9.061 9.001 9.974V9C9.001 7.897 8.104 7 7.001 7H5.001C3.898 7 3.001 7.897 3.001 9V9.974C1.794 9.06 1.001 7.626 1.001 6C1.001 3.243 3.244 1 6.001 1ZM6.001 6C7.104 6 8.001 5.103 8.001 4C8.001 2.897 7.104 2 6.001 2C4.898 2 4.001 2.897 4.001 4C4.001 5.103 4.898 6 6.001 6ZM6.001 3C6.552 3 7.001 3.448 7.001 4C7.001 4.552 6.552 5 6.001 5C5.45 5 5.001 4.552 5.001 4C5.001 3.448 5.45 3 6.001 3ZM24.017 6.05L23.085 6.413L21.241 1.688C19.742 6.086 12.947 16.32 0 18.9V17.876C12.75 15.243 19.232 5.021 20.382 1.08L15.377 3.032L15.014 2.1L20.088 0.121C20.463 -0.025 20.873 -0.017 21.24 0.144C21.608 0.306 21.891 0.601 22.037 0.976L24.016 6.049L24.017 6.05ZM16.975 11.755L17.001 23.999L16.001 24.001L15.977 12.749C16.322 12.42 16.654 12.088 16.975 11.755ZM1.001 20.711C1.341 20.636 1.67 20.55 2.001 20.466V24H1.001V20.711ZM21.001 8H22.001V24H21.001V8ZM11.984 15.985L12.001 23.999L11.001 24.001L10.985 16.628C11.321 16.416 11.662 16.206 11.984 15.985ZM6.988 18.752L7.001 23.998L6.001 24L5.989 19.188C6.331 19.051 6.656 18.899 6.988 18.752Z" fill="#FF4000"/>
</svg>
