<svg width="24" height="24" viewBox="0 0 24 24" fill="none" xmlns="http://www.w3.org/2000/svg">
<path d="M23.28 9.39575L12.99 1.34275C12.408 0.88675 11.592 0.88675 11.01 1.34275L0.72 9.39575L0.103 8.60875L10.393 0.55575C11.34 -0.18525 12.661 -0.18525 13.608 0.55575L23.898 8.60775L23.281 9.39475L23.28 9.39575ZM1 20.5017C1 19.6747 1.673 19.0017 2.5 19.0017H5V18.0017H2.5C1.121 18.0017 0 19.1227 0 20.5017V24.0017H1V20.5017ZM7 13.5017C7 12.1237 5.879 11.0017 4.5 11.0017C3.121 11.0017 2 12.1237 2 13.5017C2 14.8798 3.121 16.0017 4.5 16.0017C5.879 16.0017 7 14.8807 7 13.5017ZM6 13.5017C6 14.3288 5.327 15.0017 4.5 15.0017C3.673 15.0017 3 14.3288 3 13.5017C3 12.6747 3.673 12.0017 4.5 12.0017C5.327 12.0017 6 12.6747 6 13.5017ZM24 20.5017C24 19.1227 22.879 18.0017 21.5 18.0017H19V19.0017H21.5C22.327 19.0017 23 19.6747 23 20.5017V24.0017H24V20.5017ZM22 13.5017C22 12.1237 20.879 11.0017 19.5 11.0017C18.121 11.0017 17 12.1237 17 13.5017C17 14.8798 18.121 16.0017 19.5 16.0017C20.879 16.0017 22 14.8807 22 13.5017ZM21 13.5017C21 14.3288 20.327 15.0017 19.5 15.0017C18.673 15.0017 18 14.3288 18 13.5017C18 12.6747 18.673 12.0017 19.5 12.0017C20.327 12.0017 21 12.6747 21 13.5017ZM15 10.0017C15 8.34775 13.654 7.00175 12 7.00175C10.346 7.00175 9 8.34775 9 10.0017C9 11.6558 10.346 13.0017 12 13.0017C13.654 13.0017 15 11.6558 15 10.0017ZM14 10.0017C14 11.1048 13.103 12.0017 12 12.0017C10.897 12.0017 10 11.1048 10 10.0017C10 8.89875 10.897 8.00175 12 8.00175C13.103 8.00175 14 8.89875 14 10.0017ZM17 17.5017C17 16.1227 15.879 15.0017 14.5 15.0017H9.5C8.121 15.0017 7 16.1227 7 17.5017V24.0017H8V17.5017C8 16.6747 8.673 16.0017 9.5 16.0017H14.5C15.327 16.0017 16 16.6747 16 17.5017V24.0017H17V17.5017Z" fill="#FF4000"/>
</svg>
