<?xml version="1.0" encoding="UTF-8"?>
<svg id="Layer_1" data-name="Layer 1" xmlns="http://www.w3.org/2000/svg" viewBox="0 0 23.53 23.38">
  <defs>
    <style>
      .cls-1 {
        fill: #ef4623;
      }
    </style>
  </defs>
  <path class="cls-1" d="M10.58.22l2.83.73c.04.05.04.16,0,.21l-1.01,1.05.29,1.3c-.01.07-.06.11-.13.11l-2.55-1.07c-.07.25-.19.52-.3.76-.13.27-.45.74-.52.97,0,.03-.02.06-.01.09l2.19,1.49c.09.06.14.14.08.25-.08.12-1.18.52-1.37.65l-.16,1.28c-.02.09-.07.12-.16.13l-2.01-1.88-1.48,1.55,1.63,2.12c.06.11.06.25-.08.27l-1.44.2-.6,1.22c-.1.05-.18,0-.23-.09l-1.21-2.27h-.04s-1.84,1-1.84,1l.91,2.51c.04.16-.04.22-.19.22-.36,0-.87-.2-1.26-.24-.06,0-.11-.01-.17,0l-.82.9c-.07.06-.14.1-.22.04-.07-.05-.08-.2-.1-.29-.17-.81-.27-1.64-.43-2.46-.2-.04-.26-.2-.07-.31,3.13-.6,5.97-2.71,7.88-5.19,1.21-1.57,2.14-3.41,2.3-5.41.15-.14.29,0,.28.17ZM12.99,1.12l-2.42-.59-.43,1.71,2.2.97s-.29-.91-.23-1.11c0-.02.27-.31.32-.36.15-.16.43-.37.54-.53.02-.03.04-.03.03-.07ZM10.99,5.95l-2.01-1.34-1,1.42,1.65,1.65.18-1.1,1.14-.55.03-.07ZM7.51,9.97l-1.5-1.93-1.41,1.04,1.07,2.08c.07.02.05-.01.07-.04.12-.18.34-.87.47-.96.03-.02.07-.03.11-.04.17-.04,1.16-.11,1.2-.16ZM2.18,10.38l-1.69.51.38,2.35c.05.01.06-.02.09-.04.16-.12.36-.41.51-.57.06-.06.15-.17.23-.19l1.29.2-.8-2.26Z"/>
  <path class="cls-1" d="M11.83,14c.09-.07.23-.03.26.07.03.12-.3.44-.03.53.59.19,1.9-.58,2.26-1.05.07-.1.29-.42.11-.49-.33-.13-.86.08-1.17.21-.11.05-.42.28-.48.07s.45-.39.61-.45c.4-.15,1.07-.32,1.36.08s.67,1.26.89,1.73c.38.84,1.09,2.55.81,3.44-.05.14-.13.21-.18.34.44,1.08,1.1,2.08,1.85,2.97.08.05.32-.06.43-.08.99-.2,1.19.46.54,1.11-.38.39-1.09.78-1.63.87-.48.08-1.04-.03-.83-.65.11-.31.4-.47.57-.72-.29-.92-.72-1.86-1.23-2.67-.05-.08-.3-.47-.34-.5-.02-.01-.21.02-.28.02-.97-.07-2.41-2.16-2.92-2.95-.21-.33-.59-.87-.73-1.21-.08-.19-.06-.3.01-.49.02-.04.09-.18.11-.2ZM13.34,16.07c.56-.16,1.11-.33,1.7-.17.26.07.23.31-.08.29s-.52-.08-.86-.03c-.24.04-1.26.31-.6.56.51.19,1.93.17,2.38-.15.17-.13.05-.31,0-.49-.29-.88-.74-1.7-1.13-2.55-.06-.04-.22.23-.27.28-.55.59-1.45,1.07-2.26,1.09l.83,1.36s.05,0,.08-.02c.06-.05.17-.12.22-.18-.05.01-.13.07-.16.03-.1-.11-.02-.27.15-.24s.09.13.02.21ZM13.67,17.09l.34.45c.36.33,1.03,1.17,1.58.98.06-.02.34-.18.4-.23.33-.25.24-.82.17-1.18-.01-.06-.04-.29-.09-.3-.73.38-1.6.38-2.4.27ZM16.14,19.02l-.13-.36h-.1s.24.36.24.36ZM17.6,22.35c.26,0,.45-.2.62-.37-.57-.52-.99-1.17-1.43-1.8.33.7.65,1.41.81,2.17ZM17.3,22.36s-.55.52-.4.66c.15.29,1.14-.15,1.35-.26.56-.31,1.67-1.36.19-1.03-.07.04.08.11.1.14.13.16-.17.43-.3.53-.26.21-.95.56-.94-.03Z"/>
  <path class="cls-1" d="M8.95,12.61c.45.47,1.81.91,2.44.75.17-.04.28-.09.22-.29-.05-.14-.42-.35,0-.44.23.14.36.39.32.66s-.31.9-.42,1.19c-.37.95-1.37,3.31-2.32,3.73-.14.06-.26.08-.41.08-.42.96-.79,2.07-.92,3.11-.02.12-.08.39,0,.47.05.06.34.2.43.28.29.25.57.71.13.97s-1.23.09-1.68-.07c-.4-.14-1.29-.59-1.25-1.1.05-.56.89-.49,1.28-.46.6-1.06,1.05-2.21,1.31-3.41-.19-.22-.32-.38-.4-.67-.3-1.13.23-3.27.57-4.41.07-.25.23-.88.4-1.03.35-.3,1.41-.17,1.8.01.17.08.11.28-.03.29-.08,0-.37-.11-.49-.13-.29-.05-.64-.1-.93-.03-.33.08-.22.3-.05.48ZM11.47,13.63c-.08.02-.2.05-.28.06-.64.04-1.63-.27-2.16-.64-.12-.08-.22-.21-.31-.28-.03-.02-.03-.05-.08-.02-.1.08-.44,1.6-.49,1.83.31.31.71.53,1.12.66.13.04.68.15.72.2.05.06.04.16-.03.21-.11.08-.5-.04-.64-.08-.46-.13-.88-.35-1.26-.63-.12.65-.23,1.35-.18,2.01.01.2.1.65.25.79.05.05.49.22.57.23.36.07.69-.29.9-.54.39-.47.67-1.04.95-1.58,0-.06,0-.04-.04-.04-.11-.01-.35.01-.37-.14,0-.32.39-.1.59-.17l.72-1.87ZM8.28,18.66c.02-.14.12-.26.16-.4.02-.06.04-.06-.02-.11-.08-.02-.14.34-.15.42,0,.03-.04.1.02.09ZM7.48,22.27c0-.82.2-1.62.39-2.41l-.67,1.46-.43.67c.18.19.45.3.71.28ZM6.52,21.76c-.24,0-.6-.04-.76.18-.07.34.86.76,1.12.85s1.26.3,1.43.02c.11-.18-.35-.56-.49-.6-.06-.02-.04,0-.04.04-.01.09.01.19-.04.28-.37.14-.91-.07-1.19-.33-.25-.23-.09-.2-.02-.45Z"/>
  <path class="cls-1" d="M15.18.15s.1.22.14.29c1.44,2.28,4.81,4.19,7.49,3.02.13-.06.37-.27.52-.17.23.26-.49.41-.51.5l.71,2.3c.02.09,0,.17-.1.19-.23.04-.94-.37-1.22-.41l-1.13.84-.1-.03-.37-2.58-1.04-.21-.5,2.33-.08.13s-.07.02-.1.02c-.17-.02-.68-.83-.88-.94l-1.3.19c-.17.01-.18-.11-.15-.25l.93-2.32v-.1s-.92-.67-.92-.67l-1.41,1.92c-.09.1-.2.08-.26-.04l-.35-1.14c-.38-.16-.85-.21-1.22-.36-.06-.02-.14-.05-.16-.11l.02-.14,1.9-1.87c-.08-.13-.23-.31-.07-.43.05-.01.15,0,.18.03ZM15.1,3.77l1.22-1.68c-.4-.38-.75-.8-1.09-1.23l-1.65,1.56,1.18.38c.12.3.18.62.28.93.01.03,0,.09.06.04ZM19.24,3.78l-1.49-.61-.83,2.13,1.2-.17.71.77.41-2.11ZM22.55,3.89c-.53.16-1.08.24-1.64.21l.27,2.17s.85-.69.97-.72c.18-.03.96.37,1,.33l-.6-2Z"/>
  <path class="cls-1" d="M19.22,11.15l-.36-2.57-1.04-.19-.53,2.44c-.07.03-.16.05-.22-.01l-.77-.89c-.42,0-.89.18-1.3.19-.16,0-.2-.06-.18-.21l.95-2.42-.96-.7-1.33,1.84-.18.15s-.07-.02-.1-.04c-.13-.12-.28-.98-.36-1.2l-1.33-.39c-.07-.03-.12-.11-.08-.18l1.89-1.83c.09-.13-.25-.4-.06-.52s.35.32.44.46c1.41,2.19,4.77,4,7.35,2.91.12-.05.6-.4.6-.08,0,.22-.52.28-.53.42l.68,2.24c.02.09,0,.2-.1.22-.22.03-.92-.37-1.19-.41-.09,0-.88.7-1.07.8-.1.05-.12.05-.22-.01ZM13.55,5.35s-.24.17-.28.21c-.47.43-.91.92-1.38,1.36,0,.07.01.03.04.04.37.11.74.19,1.1.33l.31.98,1.25-1.71c-.4-.33-.77-.76-1.04-1.21ZM17.1,10.38l.43-2.09-1.49-.65-.85,2.14,1.22-.17.68.76ZM21.41,10.39l-.59-1.98c-.54.13-1.08.23-1.64.2l.27,2.17c.24-.09.8-.69,1-.71.18-.02.93.37.96.33Z"/>
  <path class="cls-1" d="M11.67,10.51c.09.09-.03.35,0,.47.05.05.51-.25.47.1-.04.3-.33.26-.41.37-.1.14-.1.61-.42.57-.23-.03.03-.43-.08-.59-.05-.04-.52.21-.48-.1.03-.19.33-.29.49-.31.02-.15,0-.33.12-.45.07-.06.23-.13.31-.05Z"/>
  <path class="cls-1" d="M18.38,17.12s.58-.29.46.15c-.06.22-.31.21-.4.3-.09.1-.1.62-.43.58-.24-.13.04-.39-.08-.59-.05-.04-.39.15-.46,0-.1-.24.3-.39.48-.41-.01-.2.02-.49.26-.53.31-.05.13.33.16.5Z"/>
  <path class="cls-1" d="M6.61,17.12c.13.03.41-.21.47,0,.1.34-.29.34-.4.49-.08.11-.16.64-.43.55-.22-.07.03-.41-.07-.56-.07-.11-.38.16-.47-.07-.04-.1.09-.23.18-.28.11-.07.19-.05.29-.09.01-.18.05-.46.25-.53.38-.12.13.45.18.49Z"/>
  <path class="cls-1" d="M3.29,15.2c-.12-.12.1-.38-.02-.53-.08-.1-.4.15-.46-.05-.07-.25.32-.37.5-.4-.05-.19.08-.6.34-.53.23.06.01.4.06.47.08.11.28-.11.38-.06.19.11.09.31-.05.41-.08.05-.21.07-.26.13s-.08.26-.13.35c-.06.11-.24.33-.37.19Z"/>
  <path class="cls-1" d="M4.11,5.84c.09.09-.03.34,0,.47.15.04.37-.21.46,0,.13.3-.32.37-.39.45s-.13.66-.43.58c-.24-.07.06-.4-.1-.56-.07-.08-.38.15-.45-.06s.31-.37.48-.39c.02-.13,0-.25.08-.37.06-.1.25-.23.35-.13Z"/>
  <path class="cls-1" d="M21.47,18.16c.13,0,.43-.21.47.02.05.3-.33.32-.41.44-.09.13-.1.51-.34.55-.36.06-.05-.39-.16-.56-.15-.05-.37.15-.46-.03-.1-.22.31-.4.49-.39-.05-.22.08-.61.37-.53.18.05,0,.37.05.5Z"/>
  <path class="cls-1" d="M11.84,8.25c.43-.02.66.98.17,1-.41.02-.68-.98-.17-1Z"/>
  <path class="cls-1" d="M20.57,1.13c.59-.12.34,1.07-.24.94-.35-.08-.13-.87.24-.94Z"/>
  <path class="cls-1" d="M8.27,7.77c.45-.06.73,1.07.11.98-.36-.06-.55-.92-.11-.98ZM8.46,8.42s-.09-.37-.15-.3c0,.08.04.17.07.24.02.04,0,.07.07.06Z"/>
  <path class="cls-1" d="M11.91,17.98c.09,0,.22.03.27.1.28.4-.58,1.01-.81.63-.18-.29.24-.71.54-.73ZM11.91,18.31c-.12,0-.23.1-.27.21.12,0,.23-.1.27-.21Z"/>
  <path class="cls-1" d="M1.1,4.88c.48-.11.69.85.34.96-.49.16-.75-.87-.34-.96ZM1.31,5.53c0-.11-.02-.26-.12-.33-.01.12.01.26.12.33Z"/>
  <path class="cls-1" d="M19.83,14.71c.13-.02.29.02.34.15.14.36-.44.85-.76.64-.34-.22.13-.75.42-.79ZM19.6,15.24c.09.04.32-.17.27-.24-.11.05-.2.14-.27.24Z"/>
  <path class="cls-1" d="M19.62,18.4c.45-.06.67.88.28.97-.51.12-.72-.91-.28-.97ZM19.81,19.05c.02-.12-.05-.22-.1-.33-.08.03.02.31.1.33Z"/>
  <path class="cls-1" d="M7.14,2.35c.28.26-.15,1.1-.52.87-.41-.25.14-1.23.52-.87ZM6.94,2.61c-.06-.06-.19.25-.18.3.06.06.2-.28.18-.3Z"/>
  <path class="cls-1" d="M3.77,17.34c-.52.54-1.08-.04-.48-.49.48-.36.88.06.48.49ZM3.64,17.03c-.08-.03-.32.17-.27.24.11-.05.2-.14.27-.24Z"/>
  <path class="cls-1" d="M16.28,12.45c.05,0,.11.01.15.04.34.21-.02.97-.39.92-.47-.06-.19-.92.23-.96ZM16.29,12.8c-.12.01-.18.16-.18.27.06.07.17-.24.18-.27Z"/>
  <path class="cls-1" d="M6.37,12.83c.59-.1.39.75-.16.82-.66.09-.33-.74.16-.82ZM6.44,13.13s-.27.18-.3.24c.14,0,.24-.12.3-.24Z"/>
  <path class="cls-1" d="M17.89,11.52c.51-.11.75,1.1.15.97-.36-.08-.53-.88-.15-.97ZM18.02,11.84c-.13-.02-.01.22.02.27.02.04,0,.07.07.06l-.09-.33Z"/>
  <path class="cls-1" d="M17.26,15.62c-.4.39-.89-.71-.46-.89s.73.62.46.89ZM17.07,15.36c.01-.12-.01-.26-.12-.33-.01.12.01.26.12.33Z"/>
  <path class="cls-1" d="M3.03,2.17c.58-.13.73,1.03.24.97-.44-.06-.56-.9-.24-.97ZM3.28,2.82c.04-.05-.08-.4-.15-.33.03.11.05.26.15.33Z"/>
  <path class="cls-1" d="M1.9,17.58c-.39.44-1.03.16-.61-.36s1.08-.16.61.36ZM1.73,17.26s-.31.19-.27.24c.07.03.31-.2.27-.24Z"/>
  <path class="cls-1" d="M11.88,2.55c-.24.24-.36-.48-.37-.61,0-.09,0-.13.06-.2.05-.05.61-.42.67-.43.1-.02.16,0,.18.11.02.19-.46.36-.58.5-.03.15.16.52.05.63Z"/>
  <path class="cls-1" d="M5.96,9.76c-.08.13-.16.63-.32.65-.09.01-.19-.06-.18-.15,0-.07.27-.75.3-.77.12-.08.42,0,.56,0,.15,0,.65-.08.51.21-.07.14-.23.06-.33.06-.18,0-.37,0-.55,0Z"/>
  <path class="cls-1" d="M2.47,12.12c.08.09.02.25-.1.26-.13.01-.59-.26-.71-.23-.16.1-.39.59-.6.53-.12-.04-.09-.18-.03-.26s.38-.47.45-.53c.08-.07.12-.07.22-.05.07.01.74.26.77.29Z"/>
  <path class="cls-1" d="M9.45,5.99c.17-.06.84-.32.96-.22.31.24-.61.38-.72.45-.05.15-.07.73-.18.81-.15.1-.23-.02-.23-.17,0-.09.12-.83.16-.87Z"/>
  <path class="cls-1" d="M12.7,15.01c.08-.08.2,0,.26.07.03.05.29.51.3.54.02.07.02.17-.05.2-.05.02-.1.02-.15,0-.03-.02-.36-.56-.37-.61-.02-.06-.02-.16.02-.2Z"/>
  <path class="cls-1" d="M15.36,15.96c.09-.03.35.05.37.16.06.34-.49.14-.47-.03,0-.04.06-.12.1-.13Z"/>
  <path class="cls-1" d="M14.23,17.21c.17-.05.23.16.32.26.12.13.28.24.45.3.11.04.35.02.37.16.06.36-.58.08-.74-.01-.13-.08-.73-.62-.4-.72Z"/>
  <path class="cls-1" d="M9.79,16.38s.1-.01.15.02c.21.17-.29.74-.43.85-.11.09-.63.39-.66.12-.02-.18.18-.17.3-.24.13-.07.31-.23.4-.35.07-.09.16-.38.25-.41Z"/>
  <path class="cls-1" d="M10.83,13.85c.12-.04.22.02.21.15,0,.05-.2.62-.23.67-.1.17-.31.11-.27-.12.01-.08.17-.55.21-.62.02-.03.03-.06.07-.08Z"/>
  <path class="cls-1" d="M10.4,15.2c-.03-.11,0-.36.13-.38.34-.06.18.58-.13.38Z"/>
  <path class="cls-1" d="M15.09,2.35l.24.79c-.01.11-.1.19-.21.15-.13-.04-.19-.57-.26-.7-.15-.02-.9.03-.66-.29.04-.05.46-.03.55-.02.06,0,.31.04.34.07Z"/>
  <path class="cls-1" d="M18.56,5.4l-.37-.58c-.19-.06-.68.32-.79.08-.04-.1.02-.16.1-.2.07-.04.65-.23.71-.23.03,0,.06,0,.08.02.04.03.51.71.52.76.04.18-.12.26-.25.15Z"/>
  <path class="cls-1" d="M22.03,5.09c.06-.02.13,0,.19,0,.09.02.5.16.57.2.12.06.14.22.02.28s-.52-.16-.67-.19c-.14.07-.47.44-.6.44-.02,0-.05,0-.07-.02-.32-.16.46-.6.55-.72Z"/>
  <path class="cls-1" d="M16.47,9.32c-.1-.06-.48.16-.61.17-.17.01-.24-.18-.09-.28.06-.04.61-.22.69-.23.09-.01.13,0,.19.07.06.07.44.61.47.69.07.16-.09.26-.23.17-.1-.06-.31-.48-.41-.59Z"/>
  <path class="cls-1" d="M13.57,7.76s-.17.06-.22,0c-.09-.1-.15-.62-.22-.67-.16-.05-.64.06-.68-.16-.02-.1.06-.18.16-.18.1,0,.34.02.45.03.06,0,.26.03.3.06.04.03.05.07.06.11.04.11.17.55.18.66,0,.05,0,.11-.03.15Z"/>
  <path class="cls-1" d="M19.72,10.29s-.04-.15,0-.21c.16-.08.47-.45.62-.49.12-.03.43.09.56.14.11.05.34.1.27.27-.1.22-.56-.1-.74-.11-.14.08-.45.44-.6.44-.03,0-.08-.02-.1-.04Z"/>
</svg>