<svg width="24" height="24" viewBox="0 0 24 24" fill="none" xmlns="http://www.w3.org/2000/svg">
<path d="M2.3769 13.8514C2.57176 14.0468 2.88824 14.047 3.08337 13.8519L13.853 3.08008C14.0482 2.88483 14.0476 2.56776 13.8524 2.37251C10.6886 -0.791003 5.54077 -0.791003 2.3769 2.37351C0.843965 3.90576 0 5.94408 0 8.11244C0 10.2808 0.843965 12.3191 2.3769 13.8514ZM3.08387 3.08062C4.47081 1.6934 6.29274 1.00029 8.11466 1.00029C9.61101 1.00029 11.1074 1.46748 12.3631 2.40333C12.5955 2.5765 12.6064 2.91367 12.4015 3.11861L3.12185 12.4001C2.91695 12.6051 2.5798 12.5943 2.40638 12.3621C1.4939 11.1405 0.999958 9.66455 0.999958 8.11244C0.999958 6.21213 1.73993 4.42384 3.08387 3.08062ZM2.99988 19.9994C2.99988 20.5514 2.55189 20.9995 1.99992 20.9995C1.44794 20.9995 0.999958 20.5514 0.999958 19.9994C0.999958 19.4473 1.44794 18.9992 1.99992 18.9992C2.55189 18.9992 2.99988 19.4473 2.99988 19.9994ZM13.9994 11.9981C13.9994 12.5502 13.5514 12.9982 12.9995 12.9982C12.4475 12.9982 11.9995 12.5502 11.9995 11.9981C11.9995 11.446 12.4475 10.9979 12.9995 10.9979C13.5514 10.9979 13.9994 11.446 13.9994 11.9981ZM19.9992 2.99661C19.9992 2.44452 20.4471 1.99645 20.9991 1.99645C21.5511 1.99645 21.9991 2.44452 21.9991 2.99661C21.9991 3.5487 21.5511 3.99677 20.9991 3.99677C20.4471 3.99677 19.9992 3.5487 19.9992 2.99661ZM22.9996 6.3567C23.1948 6.55195 23.1954 6.86974 22.9917 7.0561C21.5688 8.35775 20.0842 9.00858 18.6012 9.00858C17.1183 9.00858 15.6337 8.35775 14.2108 7.0561C14.007 6.86974 14.0077 6.55193 14.2029 6.35668C14.3981 6.1614 14.7137 6.16255 14.9187 6.34753C16.6986 7.95351 19.3018 9.04784 22.283 6.3489C22.4877 6.16357 22.8043 6.16141 22.9996 6.3567ZM9.85759 17.4019C10.3092 19.3176 9.70462 21.1954 8.05858 22.9919C7.87203 23.1955 7.5544 23.1946 7.35917 22.9993C7.16395 22.8041 7.16543 22.4882 7.35083 22.2836C8.73661 20.7544 9.25152 19.1919 8.88363 17.632C8.66721 16.7151 8.1528 15.8036 7.35062 14.9166C7.16538 14.7118 7.16403 14.3961 7.35929 14.2008C7.55447 14.0056 7.87212 14.0048 8.05827 14.2086C8.99417 15.2336 9.59824 16.3062 9.85759 17.4019ZM17.9962 19.3182C18.0497 20.5905 17.5506 21.8242 16.5118 22.9897C16.3281 23.1958 16.0101 23.1946 15.8148 22.9993C15.6196 22.8041 15.6215 22.4887 15.8033 22.2809C16.6366 21.329 17.0381 20.3478 16.9973 19.3603C16.9477 18.172 16.2767 17.2276 15.8476 16.7411C15.6644 16.5334 15.6408 16.2052 15.8196 15.9936C15.9952 15.786 16.3052 15.762 16.4903 15.9612C17.0115 16.522 17.9306 17.7279 17.9962 19.3182ZM23 13.9984C23.552 13.9984 24 14.4465 24 14.9985C24 15.5506 23.552 15.9987 23 15.9987C22.4481 15.9987 22.0001 15.5506 22.0001 14.9985C22.0001 14.4465 22.4481 13.9984 23 13.9984ZM24 22.9998C24 23.5519 23.552 24 23 24C22.4481 24 22.0001 23.5519 22.0001 22.9998C22.0001 22.4477 22.4481 21.9997 23 21.9997C23.552 21.9997 24 22.4477 24 22.9998Z" fill="#FF4000"/>
</svg>
