<svg width="24" height="24" viewBox="0 0 24 24" fill="none" xmlns="http://www.w3.org/2000/svg">
<path d="M23.2793 21.266C23.2791 21.266 23.2789 21.266 23.2787 21.2661L21.3311 21.871C21.0691 21.9524 20.7905 21.8075 20.7067 21.5463L19.9227 19.102C19.8424 18.8515 19.9714 18.5841 20.2053 18.4638C21.0299 18.0394 21.714 17.3838 22.18 16.558C22.811 15.441 22.968 14.146 22.617 12.888L20.63 6.884C20.217 5.516 18.763 4.711 17.377 5.1L13.24 6.302C12.8785 6.40268 12.5501 6.57474 12.2696 6.80566C12.0023 7.0257 11.5736 7.02578 11.3064 6.80566C11.026 6.57471 10.6987 6.40313 10.34 6.303L6.194 5.098C4.81 4.712 3.36 5.515 2.95 6.871L0.952 12.911C0.332016 15.1375 1.39447 17.4419 3.37071 18.4634C3.60408 18.584 3.73283 18.8511 3.65269 19.1012L2.86919 21.547C2.78548 21.8084 2.50678 21.9534 2.24471 21.872L0.77433 21.4153C0.510681 21.3334 0.23054 21.4807 0.148556 21.7443C0.0665275 22.0081 0.213903 22.2884 0.477696 22.3704L5.30269 23.8688C5.56633 23.9506 5.84645 23.8033 5.92843 23.5397C6.01047 23.2759 5.86306 22.9956 5.59924 22.9137L4.15588 22.4656C3.89045 22.3832 3.74316 22.1002 3.82797 21.8355L4.62637 19.3439C4.70243 19.1065 4.94163 18.9644 5.19008 18.9844C5.31885 18.9949 5.44726 19 5.575 19C7.676 19 9.608 17.611 10.193 15.512L11.315 12.1545C11.4671 11.6992 12.1111 11.6991 12.2634 12.1544L13.378 15.487C13.722 16.722 14.525 17.749 15.643 18.38C16.373 18.792 17.179 19.002 17.995 19.002C18.1257 19.002 18.2564 18.9966 18.3869 18.9857C18.6358 18.9651 18.8758 19.1071 18.9521 19.345L19.7508 21.8343C19.8357 22.0991 19.6884 22.3822 19.4229 22.4646L17.9788 22.9127C17.715 22.9946 17.5675 23.2749 17.6496 23.5387C17.7316 23.8024 18.0117 23.9496 18.2753 23.8678L23.1003 22.3694C23.3641 22.2874 23.5115 22.0071 23.4295 21.7434L23.2815 21.2676C23.2812 21.2666 23.2803 21.266 23.2793 21.266ZM9.236 15.218C8.674 17.237 6.572 18.419 4.554 17.86C2.536 17.298 1.352 15.198 1.907 13.202L2.52249 11.3429C2.59025 11.1382 2.78157 11 2.99716 11H9.95082C10.2922 11 10.5332 11.3346 10.4251 11.6584L9.236 15.218ZM11.207 9.318L11.0932 9.65853C11.025 9.86249 10.834 10 10.619 10H3.65801C3.31722 10 3.07629 9.66655 3.1833 9.34299L3.901 7.173C4.115 6.465 4.777 6.001 5.487 6.001C5.631 6.001 5.777 6.02 5.922 6.06L10.066 7.264C10.497 7.384 10.853 7.666 11.069 8.058C11.285 8.451 11.332 8.904 11.207 9.318ZM12.5065 8.0595C12.5064 8.05958 12.5063 8.05948 12.5063 8.05938C12.7224 7.6667 13.0782 7.38494 13.515 7.263L17.652 6.061C17.797 6.02 17.943 6.001 18.088 6.001C18.798 6.001 19.461 6.467 19.678 7.185L20.3923 9.3418C20.4995 9.66539 20.2586 9.999 19.9177 9.999H12.9577C12.7428 9.999 12.552 9.8617 12.4836 9.65796L12.374 9.331C12.2441 8.90323 12.2919 8.45148 12.5067 8.05962C12.5067 8.05952 12.5066 8.05942 12.5065 8.0595ZM16.1325 17.5085C16.1326 17.5086 16.1325 17.5087 16.1324 17.5087C15.2487 17.0096 14.6119 16.1968 14.333 15.195L13.1511 11.6595C13.0429 11.3357 13.2839 11.001 13.6253 11.001H20.5788C20.7944 11.001 20.9857 11.1392 21.0535 11.3439L21.661 13.18C21.933 14.158 21.808 15.183 21.31 16.067C20.811 16.951 19.998 17.588 19.02 17.86C18.0412 18.1319 17.0165 18.0071 16.1326 17.5083C16.1325 17.5083 16.1324 17.5084 16.1325 17.5085ZM15.2205 3.28935C15.0253 3.48465 14.7087 3.48469 14.5134 3.28942C14.3182 3.09422 14.3182 2.77775 14.5133 2.5825L16.0945 1.00065C16.2897 0.805349 16.6063 0.805314 16.8016 1.00058C16.9968 1.19578 16.9968 1.51226 16.8017 1.7075L15.2205 3.28935ZM9.0515 3.2505C8.85627 3.44573 8.53973 3.44573 8.3445 3.2505L6.8015 1.7075C6.60627 1.51227 6.60627 1.19573 6.8015 1.0005C6.99673 0.805267 7.31327 0.805267 7.5085 1.0005L9.0515 2.5435C9.24673 2.73873 9.24673 3.05527 9.0515 3.2505ZM12.302 2.5C12.302 2.77614 12.0781 3 11.802 3C11.5259 3 11.302 2.77614 11.302 2.5V0.5C11.302 0.223858 11.5259 0 11.802 0C12.0781 0 12.302 0.223858 12.302 0.5V2.5Z" fill="#FF4000"/>
</svg>
