<svg width="24" height="24" viewBox="0 0 24 24" fill="none" xmlns="http://www.w3.org/2000/svg">
<path d="M16.001 8C13.3557 8 11.0072 9.29057 9.54954 11.2743C9.40114 11.4763 9.13191 11.5511 8.89907 11.4584C8.69411 11.3767 8.48408 11.3053 8.26956 11.2446C7.90471 11.1414 7.7249 10.6998 7.95239 10.3964L9.90035 7.7989C10.0437 7.60779 10.0318 7.34199 9.87197 7.16443L8.07197 5.16451C7.97714 5.05916 7.84206 4.999 7.70033 4.999H5.29967C5.15794 4.999 5.02286 5.05916 4.92804 5.16451L3.12803 7.16443C2.96822 7.34199 2.95633 7.60779 3.09965 7.7989L5.04755 10.3963C5.27505 10.6997 5.09506 11.1415 4.73023 11.2449C2.00373 12.0173 0 14.5293 0 17.5C0 21.084 2.916 24 6.5 24C8.07262 24 9.5155 23.4389 10.6409 22.5061C10.8341 22.3459 11.1138 22.3346 11.3171 22.4819C12.6341 23.4361 14.2523 24 16 24C20.411 24 24 20.411 24 16C24 11.589 20.412 8 16.001 8ZM5.37405 6.1654C5.46886 6.06011 5.6039 6 5.74558 6H7.25531C7.39706 6 7.53215 6.06017 7.62697 6.16553L8.57897 7.22338C8.73878 7.40096 8.75064 7.66679 8.60728 7.85789L6.89997 10.1338C6.69997 10.4004 6.30003 10.4004 6.10003 10.1338L4.39281 7.85802C4.24941 7.66686 4.26133 7.40094 4.42125 7.22337L5.37405 6.1654ZM1.001 17.5C1.001 14.468 3.468 12 6.501 12C7.14288 12 7.75976 12.111 8.33307 12.3144C8.59694 12.408 8.70268 12.7132 8.59633 12.9722C8.2126 13.9067 8.001 14.9296 8.001 16C8.001 17.9643 8.71253 19.7646 9.89127 21.1588C10.0718 21.3724 10.0648 21.6949 9.84302 21.8652C8.91622 22.5769 7.7574 23 6.501 23C3.468 23 1.001 20.532 1.001 17.5ZM11.2345 20.2984C11.076 20.5652 10.7083 20.5856 10.5154 20.3425C9.56794 19.1485 9.001 17.6389 9.001 16C9.001 15.1413 9.15652 14.318 9.44113 13.5567C9.54987 13.2658 9.90641 13.1726 10.1391 13.3782C11.2806 14.3868 12.001 15.8612 12.001 17.5C12.001 18.5214 11.7215 19.4784 11.2345 20.2984ZM16.001 23C14.5306 23 13.1655 22.5441 12.0379 21.7668C11.8127 21.6116 11.7784 21.3004 11.9291 21.0723C12.6067 20.0467 13.001 18.8185 13.001 17.5C13.001 15.4516 12.0483 13.6218 10.5628 12.4298C10.3495 12.2587 10.2872 11.9519 10.4541 11.7353C11.735 10.0734 13.7446 9 16.001 9C19.861 9 23.001 12.141 23.001 16C23.001 19.859 19.861 23 16.001 23ZM9.9195 3.28865C9.72426 3.48381 9.40778 3.48378 9.21258 3.28858C9.01731 3.09331 9.01735 2.77672 9.21265 2.5815L10.7945 1.00035C10.9897 0.805186 11.3062 0.80522 11.5014 1.00042C11.6967 1.19569 11.6967 1.51228 11.5013 1.7075L9.9195 3.28865ZM3.3975 3.604C3.39768 3.604 3.39778 3.60378 3.39765 3.60365L1.50062 1.70746C1.30533 1.51226 1.3053 1.1957 1.50054 1.00046C1.69575 0.80525 2.01225 0.80525 2.20746 1.00046L3.89692 2.68992C4.01129 2.80429 4.01129 2.98971 3.89692 3.10408L3.39735 3.60365C3.39722 3.60378 3.39732 3.604 3.3975 3.604ZM7.002 2.5C7.002 2.77614 6.77814 3 6.502 3C6.22586 3 6.002 2.77614 6.002 2.5V0.5C6.002 0.223858 6.22586 0 6.502 0C6.77814 0 7.002 0.223858 7.002 0.5V2.5Z" fill="#FF4000"/>
</svg>
