<svg width="12" height="20" viewBox="0 0 12 20" fill="none" xmlns="http://www.w3.org/2000/svg">
<path d="M6 20C2.69121 20 0 17.1967 0 13.75V5C0 4.53918 0.358447 4.16672 0.799951 4.16672C1.2416 4.16672 1.60005 4.53918 1.60005 5V13.75C1.60005 16.2767 3.57363 18.3333 6 18.3333C8.42637 18.3333 10.4 16.2767 10.4 13.75V4.58328C10.4 2.97501 9.14399 1.66672 7.60005 1.66672C6.05596 1.66672 4.8 2.97501 4.8 4.58328V12.9167C4.8 13.6058 5.33833 14.1667 6 14.1667C6.66167 14.1667 7.2 13.6058 7.2 12.9167V5C7.2 4.53918 7.55845 4.16672 7.99995 4.16672C8.4416 4.16672 8.80005 4.53918 8.80005 5V12.9167C8.80005 14.525 7.54395 15.8333 6 15.8333C4.45605 15.8333 3.19995 14.525 3.19995 12.9167V4.58328C3.19995 2.05673 5.17354 0 7.60005 0C10.0264 0 12 2.05673 12 4.58328V13.75C12 17.1967 9.30879 20 6 20Z" fill="#9999B3"/>
</svg>
