<?xml version="1.0" standalone="no"?>
<!DOCTYPE svg PUBLIC "-//W3C//DTD SVG 20010904//EN"
 "http://www.w3.org/TR/2001/REC-SVG-20010904/DTD/svg10.dtd">
<svg version="1.0" xmlns="http://www.w3.org/2000/svg"
 width="300.000000pt" height="300.000000pt" viewBox="0 0 300.000000 300.000000"
 preserveAspectRatio="xMidYMid meet">
<metadata>
Created by potrace 1.10, written by Peter Selinger 2001-2011
</metadata>
<g transform="translate(0.000000,300.000000) scale(0.100000,-0.100000)"
fill="#E29F55" stroke="none">
<path d="M2012 2977 c-6 -7 -22 -118 -36 -247 -21 -207 -23 -238 -10 -257 18
-28 64 -31 86 -5 24 26 68 483 49 506 -16 19 -74 21 -89 3z m38 -253 c-20
-196 -29 -238 -47 -220 -9 8 31 418 42 436 5 8 11 8 17 2 7 -7 2 -82 -12 -218z"/>
<path d="M1085 2582 c-22 -10 -54 -34 -70 -53 -17 -19 -135 -248 -263 -509
l-234 -475 -135 -90 c-183 -122 -206 -143 -250 -233 -35 -70 -38 -83 -38 -162
0 -79 3 -92 38 -162 64 -131 171 -208 310 -224 60 -7 163 15 210 45 l29 19 52
-77 c29 -42 128 -187 220 -323 92 -136 182 -259 199 -273 77 -58 167 -71 247
-34 76 34 120 90 135 172 16 84 2 116 -152 345 -81 120 -173 254 -205 300 -45
63 -54 82 -40 82 68 0 883 72 909 81 47 15 109 83 131 142 30 80 35 159 18
272 -45 300 -247 660 -513 916 -178 171 -324 250 -473 256 -68 3 -93 0 -125
-15z m228 -43 c337 -112 747 -636 834 -1065 26 -127 17 -273 -19 -335 -29 -48
-69 -82 -109 -92 -14 -4 -167 -18 -340 -32 -541 -43 -528 -42 -556 -61 -13 -8
-23 -24 -23 -37 0 -12 80 -140 178 -284 97 -144 186 -280 196 -300 24 -47 26
-135 4 -178 -46 -88 -155 -128 -246 -89 -51 21 -84 55 -155 159 -33 50 -103
153 -156 230 -52 77 -118 173 -145 214 -71 105 -80 109 -160 77 -94 -38 -199
-37 -281 3 -170 82 -247 281 -171 447 35 77 68 109 236 224 74 51 142 102 150
114 8 11 123 237 255 501 l240 480 44 23 c57 29 140 29 224 1z"/>
<path d="M1120 2508 c-26 -13 -58 -41 -75 -66 -28 -40 -30 -52 -33 -143 -7
-199 78 -440 244 -689 226 -339 548 -579 719 -536 38 10 106 75 127 123 101
227 -103 713 -442 1055 -226 228 -418 319 -540 256z m193 -48 c228 -85 536
-429 684 -762 62 -141 87 -244 88 -358 0 -83 -3 -101 -25 -140 -58 -103 -137
-115 -282 -42 -211 104 -452 371 -598 662 -90 180 -130 320 -131 456 -1 190
87 250 264 184z"/>
<path d="M1361 2021 c-70 -25 -106 -60 -97 -95 4 -15 18 -32 32 -38 21 -10 33
-8 70 10 128 62 277 -10 291 -142 9 -74 -4 -111 -57 -170 -54 -58 -61 -83 -32
-109 31 -28 66 -21 112 24 65 63 95 137 94 229 -1 87 -22 142 -78 207 -76 88
-222 125 -335 84z m219 -52 c80 -35 138 -111 154 -202 15 -82 -41 -222 -99
-249 -40 -18 -40 -3 -1 45 19 24 42 60 51 80 52 125 -37 286 -174 316 -48 10
-69 7 -168 -24 -34 -11 -30 23 5 37 81 32 154 31 232 -3z"/>
<path d="M907 2152 c-26 -29 -307 -605 -307 -630 0 -13 7 -36 15 -52 33 -64
279 -417 312 -449 35 -33 36 -33 107 -27 39 3 190 15 336 27 272 21 310 29
310 67 -1 24 -25 50 -100 109 -130 101 -290 285 -390 448 -69 111 -148 286
-177 390 -35 125 -67 160 -106 117z m46 -44 c15 -108 109 -332 205 -485 120
-194 312 -407 445 -493 l67 -45 -357 -27 c-282 -22 -359 -25 -364 -15 -4 6
-78 115 -164 241 l-156 230 146 294 c80 162 148 305 151 318 9 37 21 29 27
-18z"/>
<path d="M405 1379 c-143 -96 -164 -115 -201 -182 -26 -46 -29 -62 -29 -137 0
-99 18 -142 91 -220 57 -61 129 -93 209 -93 76 -1 123 20 260 113 103 70 145
110 145 135 0 7 -43 78 -96 157 -198 293 -210 308 -248 308 -7 0 -66 -36 -131
-81z m256 -116 c62 -93 130 -192 152 -221 21 -30 35 -57 31 -61 -32 -27 -232
-155 -266 -171 -64 -29 -151 -27 -216 6 -61 30 -96 69 -130 143 -40 87 -25
197 37 268 14 17 266 200 277 203 1 0 53 -75 115 -167z"/>
<path d="M914 935 c-81 -41 -164 -111 -164 -140 0 -15 42 -87 107 -183 340
-502 350 -515 418 -528 51 -9 119 19 153 64 23 30 27 45 27 97 0 69 33 12
-275 468 -126 187 -175 247 -204 247 -7 0 -34 -11 -62 -25z m281 -312 c230
-341 227 -335 227 -378 0 -104 -120 -160 -197 -92 -22 20 -432 618 -440 642
-5 14 165 124 190 124 15 0 70 -74 220 -296z"/>
<path d="M2469 2420 c-117 -77 -218 -149 -223 -160 -11 -25 20 -73 50 -78 19
-3 440 267 456 292 22 34 -7 86 -48 86 -11 0 -117 -63 -235 -140z m241 82 c0
-5 -8 -16 -17 -24 -28 -24 -375 -248 -384 -248 -5 0 -9 7 -9 15 0 9 79 68 188
140 171 113 222 140 222 117z"/>
<path d="M2363 1905 c-15 -11 -23 -26 -23 -45 0 -20 8 -34 23 -44 20 -13 457
-96 504 -96 12 0 29 7 37 16 19 19 21 67 4 82 -7 5 -116 28 -243 51 -126 23
-241 44 -255 46 -14 3 -35 -1 -47 -10z m261 -70 c209 -37 256 -49 240 -65 -8
-8 -421 59 -462 75 -15 6 -7 25 10 25 7 0 102 -16 212 -35z"/>
</g>
</svg>
