<?xml version="1.0" encoding="UTF-8"?>
<svg version="1.1" xmlns="http://www.w3.org/2000/svg" width="14" height="17">
<path d="M0 0 C0 0.66 0 1.32 0 2 C0.99 2.33 1.98 2.66 3 3 C3.02686553 4.97909398 3.04633375 6.95828971 3.0625 8.9375 C3.07410156 10.03964844 3.08570313 11.14179688 3.09765625 12.27734375 C3 15 3 15 2 16 C0.00200428 16.09873816 -1.99957158 16.12971799 -4 16.125 C-5.093125 16.12757812 -6.18625 16.13015625 -7.3125 16.1328125 C-10 16 -10 16 -11 15 C-11.07258946 12.81360547 -11.08373783 10.62499611 -11.0625 8.4375 C-11.05347656 7.23996094 -11.04445313 6.04242188 -11.03515625 4.80859375 C-11.02355469 3.88175781 -11.01195312 2.95492188 -11 2 C-3.57142857 -1.57142857 -3.57142857 -1.57142857 0 0 Z M-9 4 C-9 7.3 -9 10.6 -9 14 C-5.7 14 -2.4 14 1 14 C1 10.7 1 7.4 1 4 C-2.3 4 -5.6 4 -9 4 Z " fill="#385044" transform="translate(11,1)"/>
<path d="M0 0 C1.9375 0.8125 1.9375 0.8125 4 2 C4.33 2.99 4.66 3.98 5 5 C2.36 5 -0.28 5 -3 5 C-1.125 1.125 -1.125 1.125 0 0 Z " fill="#385045" transform="translate(6,6)"/>
<path d="M0 0 C2.64 0 5.28 0 8 0 C8 0.66 8 1.32 8 2 C5.36 2 2.72 2 0 2 C0 1.34 0 0.68 0 0 Z " fill="#385045" transform="translate(3,12)"/>
</svg>
