<svg width="42" height="42" viewBox="0 0 42 42" fill="none" xmlns="http://www.w3.org/2000/svg">
<rect x="42" y="42" width="42" height="42" rx="21" transform="rotate(-180 42 42)" fill="#573BB6"/>
<path d="M29.9368 22.0737C30.3433 21.8704 30.6001 21.4549 30.6001 21.0004C30.6001 20.5459 30.3433 20.1304 29.9368 19.9271L13.1368 11.5271C12.7111 11.3143 12.1999 11.3731 11.8337 11.677C11.4675 11.9809 11.3155 12.4725 11.4463 12.9301L13.1605 18.9301C13.3077 19.4452 13.7786 19.8004 14.3144 19.8004L19.8001 19.8004C20.4628 19.8004 21.0001 20.3376 21.0001 21.0004C21.0001 21.6631 20.4628 22.2004 19.8001 22.2004L14.3144 22.2004C13.7786 22.2004 13.3077 22.5556 13.1606 23.0707L11.4463 29.0707C11.3155 29.5283 11.4675 30.0199 11.8337 30.3238C12.1999 30.6277 12.7111 30.6865 13.1368 30.4737L29.9368 22.0737Z" fill="white"/>
</svg>
