<svg width="23" height="23" viewBox="0 0 23 23" fill="none" xmlns="http://www.w3.org/2000/svg">
<path d="M8.46056 4.75227C8.26044 4.55272 8.01327 4.40678 7.74185 4.32792C7.47044 4.24905 7.18353 4.2398 6.9076 4.30102C6.63167 4.36224 6.37561 4.49196 6.16304 4.6782C5.95048 4.86445 5.78826 5.10122 5.69136 5.36667L0.100763 20.7405C0.00892323 20.994 -0.0207422 21.2658 0.014257 21.5332C0.0492563 21.8005 0.147899 22.0556 0.301904 22.277C0.45591 22.4983 0.660783 22.6795 0.899327 22.8053C1.13787 22.9311 1.40312 22.9979 1.67282 23C1.87139 22.9987 2.06819 22.9626 2.25435 22.8935L17.6309 17.3032C17.8965 17.2065 18.1334 17.0444 18.3198 16.8319C18.5062 16.6195 18.6361 16.3635 18.6974 16.0876C18.7588 15.8117 18.7496 15.5249 18.6708 15.2535C18.592 14.9821 18.4461 14.7349 18.2465 14.5347L8.46056 4.75227ZM3.52392 16.3055L5.56887 10.6844L12.3129 17.4268L6.68934 19.4712L3.52392 16.3055ZM13.6273 6.81482C13.6433 6.23893 13.7827 5.67319 14.0362 5.15583C14.6007 4.02819 15.6658 3.40741 17.0355 3.40741C17.7491 3.40741 18.2071 3.16356 18.4893 2.63968C18.638 2.34658 18.7232 2.02551 18.7396 1.69731C18.7405 1.47139 18.8311 1.25505 18.9915 1.0959C19.1518 0.936746 19.3689 0.84781 19.5949 0.848657C19.8209 0.849505 20.0373 0.940066 20.1964 1.10042C20.3556 1.26077 20.4446 1.47778 20.4438 1.7037C20.4438 3.07306 19.5363 5.11111 17.0355 5.11111C16.3219 5.11111 15.8639 5.35495 15.5817 5.87884C15.4331 6.17194 15.3478 6.49301 15.3314 6.8212C15.331 6.93307 15.3085 7.04376 15.2653 7.14695C15.2221 7.25014 15.159 7.34381 15.0796 7.42262C15.0001 7.50142 14.906 7.56382 14.8024 7.60624C14.6989 7.64866 14.588 7.67028 14.4761 7.66986C14.3642 7.66944 14.2535 7.64699 14.1503 7.6038C14.0471 7.5606 13.9534 7.4975 13.8746 7.4181C13.7957 7.3387 13.7333 7.24456 13.6909 7.14105C13.6485 7.03754 13.6268 6.92668 13.6273 6.81482ZM11.0711 3.40741V0.851852C11.0711 0.625927 11.1608 0.409255 11.3206 0.249502C11.4804 0.0897484 11.6971 0 11.9231 0C12.1491 0 12.3658 0.0897484 12.5256 0.249502C12.6854 0.409255 12.7752 0.625927 12.7752 0.851852V3.40741C12.7752 3.63333 12.6854 3.85 12.5256 4.00976C12.3658 4.16951 12.1491 4.25926 11.9231 4.25926C11.6971 4.25926 11.4804 4.16951 11.3206 4.00976C11.1608 3.85 11.0711 3.63333 11.0711 3.40741ZM21.8986 12.1751C21.9777 12.2542 22.0405 12.3482 22.0833 12.4516C22.126 12.5549 22.148 12.6657 22.148 12.7776C22.1479 12.8895 22.1258 13.0003 22.083 13.1036C22.0401 13.207 21.9773 13.3009 21.8981 13.3799C21.819 13.459 21.725 13.5217 21.6216 13.5645C21.5182 13.6073 21.4073 13.6292 21.2954 13.6292C21.1835 13.6291 21.0727 13.6071 20.9694 13.5642C20.866 13.5213 20.7721 13.4585 20.693 13.3794L18.9889 11.6757C18.829 11.5159 18.7392 11.2991 18.7392 11.073C18.7392 10.847 18.829 10.6302 18.9889 10.4703C19.1487 10.3105 19.3656 10.2207 19.5917 10.2207C19.8178 10.2207 20.0346 10.3105 20.1945 10.4703L21.8986 12.1751ZM22.4173 7.62301L19.8612 8.47486C19.6468 8.54631 19.4127 8.52968 19.2106 8.42864C19.0085 8.3276 18.8548 8.15041 18.7833 7.93606C18.7118 7.72172 18.7285 7.48777 18.8295 7.28568C18.9306 7.08359 19.1078 6.92992 19.3222 6.85847L21.8784 6.00662C22.0928 5.93517 22.3268 5.9518 22.529 6.05284C22.7311 6.15389 22.8848 6.33107 22.9563 6.54542C23.0277 6.75976 23.0111 6.99371 22.91 7.1958C22.809 7.39789 22.6317 7.55156 22.4173 7.62301Z" fill="#E29F55"/>
</svg>
