<svg width="35" height="35" viewBox="0 0 35 35" fill="none" xmlns="http://www.w3.org/2000/svg">
<path d="M27.44 18.6733C23.264 18.6733 19.8779 22.0605 19.8779 26.2355C19.8779 30.4093 23.264 33.7944 27.44 33.7944C31.6139 33.7944 35 30.4094 35 26.2355C35 22.0604 31.6139 18.6733 27.44 18.6733ZM27.9252 31.8241V31.1713C27.9252 30.9012 27.7074 30.683 27.44 30.683C27.1699 30.683 26.9527 30.9018 26.9527 31.1713V31.8241C24.2453 31.5913 22.0825 29.4281 21.8497 26.7211H22.5046C22.7721 26.7211 22.9908 26.5033 22.9908 26.2359C22.9908 25.9638 22.7721 25.7486 22.5046 25.7486H21.8497C22.0825 23.0406 24.2457 20.8795 26.9527 20.6456V21.2995C26.9527 21.5685 27.1705 21.7868 27.44 21.7868C27.7075 21.7868 27.9252 21.568 27.9252 21.2995V20.6456C30.6336 20.8795 32.7964 23.0406 33.0281 25.7486H32.3733C32.1043 25.7486 31.887 25.9643 31.887 26.2359C31.887 26.5039 32.1048 26.7211 32.3733 26.7211H33.0281C32.7969 29.428 30.6336 31.5907 27.9252 31.8241Z" fill="#E29F55"/>
<path d="M30.2567 25.5048H28.5027C28.2688 25.1675 27.8804 24.9436 27.4396 24.9436C27.4329 24.9436 27.4257 24.9456 27.4179 24.9456L25.8196 22.6954C25.5868 22.368 25.1305 22.292 24.802 22.5237C24.4746 22.7575 24.3959 23.2148 24.6303 23.5433L26.2297 25.7944C26.1806 25.9325 26.1491 26.0795 26.1491 26.2362C26.1491 26.949 26.7258 27.5258 27.4396 27.5258C27.8804 27.5258 28.2709 27.3039 28.5027 26.9655H30.2567C30.6592 26.9655 30.9866 26.6403 30.9866 26.2367C30.9866 25.8312 30.6592 25.5048 30.2567 25.5048Z" fill="#E29F55"/>
<path d="M7.27705 11.1859C8.60025 11.1859 9.67101 10.1142 9.67101 8.7925V3.59901C9.67101 2.27684 8.60025 1.20557 7.27705 1.20557C5.95489 1.20557 4.88464 2.27684 4.88464 3.59901V8.79302C4.88464 10.1142 5.95483 11.1859 7.27705 11.1859Z" fill="#E29F55"/>
<path d="M21.9363 11.1859C23.2596 11.1859 24.3303 10.1142 24.3303 8.7925V3.59901C24.3303 2.27684 23.2595 1.20557 21.9363 1.20557C20.6152 1.20557 19.5439 2.27684 19.5439 3.59901V8.79302C19.5434 10.1142 20.6152 11.1859 21.9363 11.1859Z" fill="#E29F55"/>
<path d="M10.5204 17.8315C10.5204 17.1482 9.96791 16.5947 9.28301 16.5947H6.98942C6.30612 16.5947 5.7511 17.1482 5.7511 17.8315V20.1241C5.7511 20.8085 6.30612 21.3635 6.98942 21.3635H9.28301C9.96734 21.3635 10.5204 20.8085 10.5204 20.1241V17.8315Z" fill="#E29F55"/>
<path d="M16.9926 17.8329C16.9926 17.1496 16.4386 16.5967 15.7568 16.5967H13.4622C12.7789 16.5967 12.2258 17.1496 12.2258 17.8329V20.1261C12.2258 20.8083 12.7788 21.3634 13.4622 21.3634H15.7568C16.4391 21.3634 16.9926 20.8083 16.9926 20.1261V17.8329Z" fill="#E29F55"/>
<path d="M19.9337 16.5947C19.2493 16.5947 18.6953 17.1482 18.6953 17.8315V20.1241C18.6953 20.7433 19.1567 21.2316 19.7485 21.3242C20.6558 19.911 21.9407 18.7667 23.4621 18.027V17.8315C23.4621 17.1482 22.9091 16.5947 22.2247 16.5947H19.9337Z" fill="#E29F55"/>
<path d="M6.99034 22.8091C6.30703 22.8091 5.75195 23.362 5.75195 24.0453V26.3389C5.75195 27.0222 6.30703 27.5752 6.99034 27.5752H9.28501C9.96831 27.5752 10.5208 27.0222 10.5208 26.3389V24.0453C10.5208 23.362 9.96831 22.8091 9.28501 22.8091H6.99034Z" fill="#E29F55"/>
<path d="M15.7542 22.8101H13.4616C12.7783 22.8101 12.2253 23.3641 12.2253 24.0474V26.3389C12.2253 27.0222 12.7783 27.5752 13.4616 27.5752H15.7542C16.4364 27.5752 16.9905 27.0222 16.9905 26.3389V24.0474C16.9905 23.3641 16.4364 22.8101 15.7542 22.8101Z" fill="#E29F55"/>
<path d="M19.0978 29.9441H7.46175C5.45886 29.9441 3.8289 28.3142 3.8289 26.3134V14.1599H25.387V17.3401C26.0475 17.188 26.7319 17.099 27.44 17.099C28.0473 17.099 28.6401 17.1617 29.2148 17.276V5.84521H25.7666V8.79265C25.7666 10.9041 24.0497 12.6215 21.9367 12.6215C19.8246 12.6215 18.1078 10.9042 18.1078 8.79265V5.84521H11.107V8.79265C11.107 10.9041 9.38904 12.6215 7.27703 12.6215C5.16599 12.6215 3.44813 10.9042 3.44813 8.79265V5.84521H0V26.3128C0 30.4324 3.34056 33.7746 7.46175 33.7746H21.7526C21.9222 33.7746 22.0898 33.7606 22.2564 33.7497C20.8835 32.801 19.7868 31.4845 19.0978 29.9441Z" fill="#E29F55"/>
</svg>
