<svg width="17" height="18" viewBox="0 0 17 18" fill="none" xmlns="http://www.w3.org/2000/svg">
<path d="M15.5833 1.38462H13.4583V0.692308C13.4583 0.508696 13.3837 0.332605 13.2509 0.202772C13.118 0.0729393 12.9379 0 12.75 0C12.5621 0 12.382 0.0729393 12.2491 0.202772C12.1163 0.332605 12.0417 0.508696 12.0417 0.692308V1.38462H4.95833V0.692308C4.95833 0.508696 4.88371 0.332605 4.75087 0.202772C4.61803 0.0729393 4.43786 0 4.25 0C4.06214 0 3.88197 0.0729393 3.74913 0.202772C3.61629 0.332605 3.54167 0.508696 3.54167 0.692308V1.38462H1.41667C1.04094 1.38462 0.680609 1.53049 0.414932 1.79016C0.149255 2.04983 0 2.40201 0 2.76923V16.6154C0 16.9826 0.149255 17.3348 0.414932 17.5945C0.680609 17.8541 1.04094 18 1.41667 18H15.5833C15.9591 18 16.3194 17.8541 16.5851 17.5945C16.8507 17.3348 17 16.9826 17 16.6154V2.76923C17 2.40201 16.8507 2.04983 16.5851 1.79016C16.3194 1.53049 15.9591 1.38462 15.5833 1.38462ZM4.60417 14.5385C4.39402 14.5385 4.1886 14.4776 4.01387 14.3634C3.83915 14.2493 3.70296 14.0872 3.62254 13.8974C3.54213 13.7076 3.52109 13.4988 3.56208 13.2974C3.60308 13.096 3.70427 12.9109 3.85287 12.7657C4.00146 12.6205 4.19078 12.5216 4.39688 12.4815C4.60299 12.4414 4.81662 12.462 5.01077 12.5406C5.20491 12.6192 5.37085 12.7523 5.4876 12.9231C5.60435 13.0938 5.66667 13.2946 5.66667 13.5C5.66667 13.7754 5.55473 14.0396 5.35547 14.2343C5.15621 14.4291 4.88596 14.5385 4.60417 14.5385ZM8.5 14.5385C8.28986 14.5385 8.08443 14.4776 7.90971 14.3634C7.73498 14.2493 7.5988 14.0872 7.51838 13.8974C7.43796 13.7076 7.41692 13.4988 7.45792 13.2974C7.49891 13.096 7.60011 12.9109 7.7487 12.7657C7.89729 12.6205 8.08661 12.5216 8.29272 12.4815C8.49882 12.4414 8.71245 12.462 8.9066 12.5406C9.10075 12.6192 9.26669 12.7523 9.38344 12.9231C9.50019 13.0938 9.5625 13.2946 9.5625 13.5C9.5625 13.7754 9.45056 14.0396 9.2513 14.2343C9.05204 14.4291 8.78179 14.5385 8.5 14.5385ZM8.5 11.0769C8.28986 11.0769 8.08443 11.016 7.90971 10.9019C7.73498 10.7878 7.5988 10.6256 7.51838 10.4359C7.43796 10.2461 7.41692 10.0373 7.45792 9.83587C7.49891 9.63443 7.60011 9.44939 7.7487 9.30416C7.89729 9.15893 8.08661 9.06002 8.29272 9.01995C8.49882 8.97989 8.71245 9.00045 8.9066 9.07905C9.10075 9.15765 9.26669 9.29075 9.38344 9.46152C9.50019 9.6323 9.5625 9.83307 9.5625 10.0385C9.5625 10.3139 9.45056 10.578 9.2513 10.7728C9.05204 10.9675 8.78179 11.0769 8.5 11.0769ZM12.3958 14.5385C12.1857 14.5385 11.9803 14.4776 11.8055 14.3634C11.6308 14.2493 11.4946 14.0872 11.4142 13.8974C11.3338 13.7076 11.3128 13.4988 11.3537 13.2974C11.3947 13.096 11.4959 12.9109 11.6445 12.7657C11.7931 12.6205 11.9824 12.5216 12.1885 12.4815C12.3947 12.4414 12.6083 12.462 12.8024 12.5406C12.9966 12.6192 13.1625 12.7523 13.2793 12.9231C13.396 13.0938 13.4583 13.2946 13.4583 13.5C13.4583 13.7754 13.3464 14.0396 13.1471 14.2343C12.9479 14.4291 12.6776 14.5385 12.3958 14.5385ZM12.3958 11.0769C12.1857 11.0769 11.9803 11.016 11.8055 10.9019C11.6308 10.7878 11.4946 10.6256 11.4142 10.4359C11.3338 10.2461 11.3128 10.0373 11.3537 9.83587C11.3947 9.63443 11.4959 9.44939 11.6445 9.30416C11.7931 9.15893 11.9824 9.06002 12.1885 9.01995C12.3947 8.97989 12.6083 9.00045 12.8024 9.07905C12.9966 9.15765 13.1625 9.29075 13.2793 9.46152C13.396 9.6323 13.4583 9.83307 13.4583 10.0385C13.4583 10.3139 13.3464 10.578 13.1471 10.7728C12.9479 10.9675 12.6776 11.0769 12.3958 11.0769ZM15.5833 5.53846H1.41667V2.76923H3.54167V3.46154C3.54167 3.64515 3.61629 3.82124 3.74913 3.95107C3.88197 4.08091 4.06214 4.15385 4.25 4.15385C4.43786 4.15385 4.61803 4.08091 4.75087 3.95107C4.88371 3.82124 4.95833 3.64515 4.95833 3.46154V2.76923H12.0417V3.46154C12.0417 3.64515 12.1163 3.82124 12.2491 3.95107C12.382 4.08091 12.5621 4.15385 12.75 4.15385C12.9379 4.15385 13.118 4.08091 13.2509 3.95107C13.3837 3.82124 13.4583 3.64515 13.4583 3.46154V2.76923H15.5833V5.53846Z" fill="#E29F55"/>
</svg>
