<svg width="35" height="33" viewBox="0 0 35 33" fill="none" xmlns="http://www.w3.org/2000/svg">
<path d="M16.875 24.2109C17.0639 24.3175 17.2777 24.3735 17.4953 24.3735C17.7129 24.3735 17.9267 24.3175 18.1156 24.2109C18.4984 23.9935 27.4906 18.8141 27.4906 9.57019C27.4121 7.0064 26.3251 4.57352 24.46 2.78708C22.5949 1.00064 20.0983 0.00100316 17.4991 7.54616e-07C14.8999 -0.00100165 12.4025 0.996705 10.536 2.78171C8.6695 4.56671 7.58058 6.99875 7.5 9.56248C7.5 18.8141 16.4969 23.9858 16.875 24.2109ZM17.5 5.86182C18.2417 5.86182 18.9667 6.07886 19.5834 6.48549C20.2001 6.89212 20.6807 7.47009 20.9645 8.1463C21.2484 8.8225 21.3226 9.56658 21.1779 10.2844C21.0333 11.0023 20.6761 11.6617 20.1517 12.1792C19.6272 12.6968 18.959 13.0492 18.2316 13.192C17.5042 13.3348 16.7502 13.2615 16.0649 12.9814C15.3797 12.7013 14.794 12.227 14.382 11.6185C13.9699 11.0099 13.75 10.2944 13.75 9.56248C13.75 8.581 14.1451 7.63972 14.8483 6.94571C15.5516 6.25171 16.5054 5.86182 17.5 5.86182ZM35 25.5987C35 30.4065 25.9828 33 17.5 33C9.01719 33 0 30.4065 0 25.5987C0 23.349 2.06562 21.3568 5.81719 19.9906C6.12484 19.8903 6.45994 19.9118 6.75184 20.0506C7.04374 20.1894 7.26963 20.4346 7.38188 20.7345C7.49414 21.0345 7.48399 21.3657 7.35358 21.6584C7.22316 21.9511 6.98267 22.1824 6.68281 22.3035C4.10313 23.2457 2.5 24.507 2.5 25.5987C2.5 27.6587 8.20625 30.5329 17.5 30.5329C26.7938 30.5329 32.5 27.6587 32.5 25.5987C32.5 24.507 30.8969 23.2457 28.3172 22.3051C28.0173 22.184 27.7768 21.9527 27.6464 21.66C27.516 21.3673 27.5059 21.036 27.6181 20.7361C27.7304 20.4361 27.9563 20.1909 28.2482 20.0522C28.5401 19.9134 28.8752 19.8919 29.1828 19.9922C32.9344 21.3568 35 23.349 35 25.5987Z" fill="#E29F55"/>
</svg>
